<svg xmlns="http://www.w3.org/2000/svg" xmlns:xlink="http://www.w3.org/1999/xlink" viewBox="0 0 120.56 121.64"><defs><style>.cls-1,.cls-4{fill:none;}.cls-2{clip-path:url(#clip-path);}.cls-3{fill:#dda16b;}.cls-4{stroke:#fff;stroke-linecap:round;stroke-linejoin:round;stroke-width:4px;}</style><clipPath id="clip-path"><circle class="cls-1" cx="60.28" cy="60.28" r="60.28"/></clipPath></defs><g id="Слой_2" data-name="Слой 2"><g id="Слой_1-2" data-name="Слой 1"><g class="cls-2"><circle class="cls-3" cx="60.28" cy="60.28" r="60.28"/><path class="cls-4" d="M47.61,59.83c-1.73-.83-12.2-6-14.73-17.26a22.88,22.88,0,0,1-.1-9.36l6.63,7.68a28.86,28.86,0,0,1,4.94-23.78,28.36,28.36,0,0,0,6.3,10.45,18.21,18.21,0,0,0,5.42,4.34c5.71,2.74,9-.75,17.83.16,3,.31,7.89.88,12.37,4.33a21.14,21.14,0,0,1,7,10.34,14.84,14.84,0,0,1,10.18,11.44,15.15,15.15,0,0,1-3.4,11.91,16,16,0,0,1-17.44-8.52"/><path class="cls-4" d="M99.65,69.29a7.9,7.9,0,0,0-2.57-5.52c-2.34-1.84-4.7-.52-7.33-2.48a8.36,8.36,0,0,1-3-5.61c-.29-3.41,1.84-6.86,5.36-8.75"/><path class="cls-4" d="M62,73.08a18.67,18.67,0,0,0,9.37,2.42c9.06-.13,14.61-7.17,15.41-8.2"/><path class="cls-4" d="M31.75,86.73A20.8,20.8,0,0,1,33.33,115"/><path class="cls-4" d="M24.65,92.41A13,13,0,0,1,26.07,106"/><path class="cls-4" d="M81.15,80.5a98.08,98.08,0,0,1-3.08,28.25,98.15,98.15,0,0,1-3.55,10.89"/><path class="cls-4" d="M3,90.52a63.47,63.47,0,0,0,23.12-13.1A63.38,63.38,0,0,0,41.54,56.67"/><ellipse class="cls-4" cx="74.52" cy="46.93" rx="0.75" ry="2.68"/></g></g></g></svg>