<svg xmlns="http://www.w3.org/2000/svg" xmlns:xlink="http://www.w3.org/1999/xlink" viewBox="0 0 120.56 120.56"><defs><style>.cls-1,.cls-4{fill:none;}.cls-2{clip-path:url(#clip-path);}.cls-3{fill:#dda16b;}.cls-4,.cls-5{stroke:#fff;stroke-linecap:round;stroke-linejoin:round;stroke-width:4px;}.cls-5{fill:#fff;}</style><clipPath id="clip-path"><circle class="cls-1" cx="60.28" cy="60.28" r="60.28"/></clipPath></defs><g id="Слой_2" data-name="Слой 2"><g id="Слой_1-2" data-name="Слой 1"><g class="cls-2"><circle class="cls-3" cx="60.37" cy="60.28" r="60.28"/><path class="cls-4" d="M27.14,75a53.82,53.82,0,0,0,16,13.54c15.21,8.43,30.18,6.85,35.63,6q-.16-6.42-.32-12.84a25.67,25.67,0,0,0,14.19-9.32,25,25,0,0,0,4.59-10.54,2.85,2.85,0,0,0-1.26-2.91l-8.19-5.3a28.66,28.66,0,0,0-8.08-16.26c-11.12-10.86-27-7.22-28.17-6.94"/><path class="cls-4" d="M42.15,40.36c2.17-12.93,5.38-25.73,9.74-25.89,2-.07,5,2.4,8.91,15.18"/><path class="cls-4" d="M65.87,20.06c5-5.65,7.49-4.94,8-4.76,3,1.09,3.66,8.3,1.86,18.12"/><path class="cls-4" d="M79.34,62.94a40.62,40.62,0,0,0-8.15-2.65,39.89,39.89,0,0,0-10.91-.76"/><path class="cls-4" d="M79.23,68.64A29.87,29.87,0,0,0,53.65,73.2"/><path class="cls-4" d="M81.65,105.58a5.61,5.61,0,0,1-6.73-6.73,5.6,5.6,0,1,1,6.73,6.73Z"/><path class="cls-4" d="M78.72,117.94a42.52,42.52,0,0,0,1.34-6.52,40.64,40.64,0,0,0,.31-5.7"/><ellipse class="cls-5" cx="76.69" cy="52.05" rx="0.74" ry="2.64"/><path class="cls-4" d="M42.15,40.36c-5.47,5.4-7.46,10.33-8.26,13.84-.86,3.79-.17,5.19-1.5,9.39C31,68,29.49,68.14,26,74.85c-4.42,8.49-3.78,9.9-6.84,12.54-2.59,2.23-3.78,2-8.91,5.18a58.17,58.17,0,0,0-8.08,6.11"/></g></g></g></svg>