<svg xmlns="http://www.w3.org/2000/svg" xmlns:xlink="http://www.w3.org/1999/xlink" viewBox="0 0 120.56 120.56"><defs><style>.cls-1,.cls-4{fill:none;}.cls-2{clip-path:url(#clip-path);}.cls-3{fill:#dda16b;}.cls-4{stroke:#fff;stroke-linecap:round;stroke-linejoin:round;stroke-width:4px;}</style><clipPath id="clip-path"><circle class="cls-1" cx="60.28" cy="60.28" r="60.28"/></clipPath></defs><g id="Слой_2" data-name="Слой 2"><g id="Слой_1-2" data-name="Слой 1"><g class="cls-2"><circle class="cls-3" cx="60.28" cy="60.28" r="60.28"/><ellipse class="cls-4" cx="75.1" cy="48.72" rx="0.8" ry="2.85"/><path class="cls-4" d="M.52,51.17a22.84,22.84,0,0,0,10.8-1.56c4.77-2,7.42-5.26,9.61-7.65A74.73,74.73,0,0,1,38.69,27.89"/><path class="cls-4" d="M57.63,47a11,11,0,0,1-9.39,6.32c-5.49,0-9.25-4.9-10.32-8.69-.77-2.73.31-3.28,1-10,.85-8.27-.52-10.12,1.51-13.41.23-.37,3-4.78,7.28-4.79,4.91,0,9.23,5.85,9,10.49-.14,3.32-2.52,4.14-3.91,8.83A19.42,19.42,0,0,0,52.49,45"/><path class="cls-4" d="M61.59,39.78a16.28,16.28,0,0,1-5-11.88"/><path class="cls-4" d="M38.91,13.86a10.55,10.55,0,0,0-8.1,2,10.64,10.64,0,0,0-3.91,8.32,10.71,10.71,0,0,0,3.8,7.71"/><path class="cls-4" d="M71.71,80.1a22.59,22.59,0,0,0,14.91-.77c1.61-.68,9.22-3.89,11.28-11.28,1.55-5.54-.89-10.31-3.74-15.87A47.9,47.9,0,0,0,80.92,36.37a52,52,0,0,0-23.4-10.11"/><path class="cls-4" d="M60.09,129.21a18,18,0,0,0-.9-7,18.27,18.27,0,0,0-5.47-8.05,62.84,62.84,0,0,0,8.66-6.76A65.2,65.2,0,0,0,79,81.9"/><path class="cls-4" d="M30.31,97.9c7.74,3.79,12.51,11.18,12.11,18.7a18.71,18.71,0,0,1-5.24,11.64Q35.1,119.06,33,109.89"/><path class="cls-4" d="M70.69,97.86a17.73,17.73,0,0,1-.23,25q-2.08-9.18-4.19-18.36"/><path class="cls-4" d="M74.31,68.28a12,12,0,0,0-9.33.16,11.08,11.08,0,0,0-4,3.25"/><path class="cls-4" d="M74.42,63A26.57,26.57,0,0,0,52.79,64.2"/></g></g></g></svg>