<svg xmlns="http://www.w3.org/2000/svg" xmlns:xlink="http://www.w3.org/1999/xlink" viewBox="0 0 124.06 126.4"><defs><style>.cls-1,.cls-4{fill:none;}.cls-2{clip-path:url(#clip-path);}.cls-3{fill:#dda16b;}.cls-4{stroke:#fff;stroke-linecap:round;stroke-linejoin:round;stroke-width:4px;}</style><clipPath id="clip-path"><circle class="cls-1" cx="63.57" cy="60.28" r="60.28"/></clipPath></defs><g id="Слой_2" data-name="Слой 2"><g id="Слой_1-2" data-name="Слой 1"><g class="cls-2"><circle class="cls-3" cx="63.78" cy="60.28" r="60.28"/><path class="cls-4" d="M42.07,49.26A39.35,39.35,0,0,1,38.88,62c-2,4.6-3.73,6-3.37,8.78.57,4.28,5.83,9,11.8,8.55A11.92,11.92,0,0,0,57.68,70.5q.06-15.68.13-31.35"/><path class="cls-4" d="M2,93.28l6.25-4.79,4.66-3.58a5.39,5.39,0,0,0,1.85-2.67c.76-2.42,1.77-5.49,3.07-9,1.42-3.85,3.52-8.26,8.7-20,4.22-9.53,6.5-14.23,8.3-16.53,5.08-6.51,13.42-10.32,21.61-10.67C73.45,25.35,83.82,40,84.54,41L106,39.64a24.82,24.82,0,0,1-.93,14.76,22.24,22.24,0,0,1-5.85,8.65c-2.94,2.62-4.84,2.77-12.9,5.91-8.76,3.42-13.18,5.19-15,8-1.52,2.28-1.1,3.39-2.88,11.57-1,4.8-2.12,8.68-2.89,11.26a84.93,84.93,0,0,1-19.63-7.27A85.28,85.28,0,0,1,24.74,77"/><path class="cls-4" d="M97.27,40.66a11.38,11.38,0,0,0,8,9.36"/><ellipse class="cls-4" cx="69.47" cy="45.55" rx="0.63" ry="2.26"/><path class="cls-4" d="M32.1,95.1a79,79,0,0,0,19.24,10.33,78.38,78.38,0,0,0,15.87,4l2.61-8.6-4.3-1.11"/><path class="cls-4" d="M64.51,110a63.11,63.11,0,0,0-1.33,7,65,65,0,0,0-.54,7.31"/></g></g></g></svg>