<?xml version="1.0" encoding="UTF-8"?>
<svg id="_Слой_2" data-name="Слой 2" xmlns="http://www.w3.org/2000/svg" viewBox="0 0 997.02 267.35">
  <defs>
    <style>
      .cls-1 {
        fill: #373737;
      }

      .cls-2 {
        fill: #dda16c;
      }
    </style>
  </defs>
  <g id="_Слой_1-2" data-name="Слой 1">
    <g>
      <path class="cls-2" d="M309.44,90.58l-40.32-26.69-9.21-6.1V24.54c0-4.09-1.41-7.86-3.77-10.84-3.2-4.06-8.16-6.66-13.73-6.66s-10.54,2.6-13.74,6.66c-2.35,2.98-3.76,6.75-3.76,10.84v10.06l-4.64-3.07-26.93-17.83-8.99-5.95c-15.62-10.34-35.8-10.34-51.42,0l-8.99,5.95-26.93,17.83-47.19,31.25-25.77,17.06-16.21,10.73C-.22,95.91-2.42,106.76,2.91,114.83c4.68,7.06,13.59,9.63,21.14,6.57,1.07-.43,2.11-.98,3.11-1.64l10.65-7.04v116.12c0,9.85,4.73,18.57,12.01,23.95,4.81,3.57,10.74,5.67,17.15,5.67h58.63c5.92,0,11.71-4.83,16.58-8.25,.17-.12,.35-.25,.52-.37,4.4-3.1,8.82-6.22,15.54-6.16,6.48,.05,10.39,2.99,14.35,5.97,5.02,3.78,11.1,8.81,17.35,8.81h60.37c7.17,0,13.74-2.63,18.81-7,6.33-5.42,10.35-13.54,10.35-22.62V112.71l10.65,7.04c2.97,1.97,6.32,2.91,9.64,2.91,5.68,0,11.24-2.75,14.61-7.84,5.33-8.06,3.13-18.91-4.93-24.25Zm-107.15-2.9h.04c1.37,4.83,2.31,12.55,2.31,17.6s-.6,9.89-1.72,14.76c-.33,1.41-.79,2.75-1.38,4,0,.01,0,.01,0,.02-5.55,11.84-21.93,16.09-32.52,6.14-3.55-3.3-6.51-8.88-6.51-13.98s.56-9.71,1.65-14.45h0c1.49-6.57,3.99-12.9,7.39-18.7,7.59-12.06,26.64-9.81,30.75,4.61Zm-87.49,.08c4.14-14.54,23.08-16.64,30.63-4.61,5.9,9.96,9.04,21.54,9.04,33.11,0,.22,0,.48-.04,.71l-.03-.04c-.23,2.7-.95,5.19-2.05,7.4-5.47,11.08-20.38,15.45-31.05,7.03-3.44-2.7-6.24-6.82-7.25-11.35-2.08-8.97-2.24-18.61-.37-27.67,.31-1.54,.69-3.07,1.12-4.58Zm-37.86,45.4c.17-11.22,13.44-16.05,20.79-9.06,5.43,5.15,10.76,14.01,12.28,21.23,.79,3.71,.05,7.31-1.69,10.29-3.54,6.04-11.23,9.55-18.78,6.32-5.25-2.25-7.47-6.34-9.42-11.35-2.07-5.32-3.26-11.42-3.18-17.14-.01-.1,0-.19,0-.29Zm136.35,75.77s0,.01,0,.02h0c-.05,.13-.1,.26-.16,.38-.63,1.36-1.41,2.72-2.35,4.06-4.18,5.89-10.3,9.37-16.3,10.78-2.06,.49-4.1,.74-6.04,.76-7.4,.08-11.65-5.13-15.84-8.28-3.96-2.98-7.87-5.92-14.35-5.97-6.72-.06-11.14,3.06-15.54,6.16-4.45,3.14-8.87,8.26-15.61,8.05-1.41-.04-2.8-.23-4.15-.55-5.47-1.26-10.41-4.56-14.46-8.44-.85-.83-1.64-1.68-2.32-2.55l.11-.04c-.93-1.2-1.7-2.44-2.42-3.86-.02-.04-.04-.08-.06-.12-1.28-2.7-2.12-5.57-2.51-8.52-.35-2.81-.23-5.34,.1-7.49,.4-2.67,1.1-4.76,1.58-6.04,6.57-15.69,16.1-28.32,28.87-39.48,10.84-9.46,24.83-12.34,37.6-8.63h.01c2.74,.79,5.41,1.89,8,3.29,0,.01,.01,.01,.01,.01,2.67,1.45,5.24,3.23,7.65,5.33,12.78,11.16,22.34,23.87,28.88,39.56,.42,1.21,3.81,11.41-.69,21.57Zm24.13-59.07h0s0,.02-.01,.03c-.1,.27-.2,.55-.31,.82v.03c-1.99,5.1-4.25,9.29-9.61,11.58-11.06,4.73-22.27-4.64-21.15-15.39h0c.05-.53,.14-1.04,.25-1.57,1.54-7.13,7.23-16.95,12.71-21.82,8.04-7.13,20.99-1.46,21.05,9.43,.03,5.93-.89,11.38-2.93,16.89Z"/>
      <g>
        <path class="cls-1" d="M361.96,108.38h11.54c2.84-4.92,5.08-9.81,6.69-14.65,1.62-4.85,2.83-9.77,3.64-14.77,.81-5,1.31-10.15,1.5-15.46,.19-5.31,.29-10.88,.29-16.73v-3.11h52.84V108.38h13.73v30.57h-17.31v-15.34h-55.6v15.34h-17.3v-30.57Zm40.61-49.49c-.15,4.15-.42,8.42-.81,12.81-.39,4.38-.96,8.71-1.73,12.98-.77,4.27-1.79,8.42-3.06,12.46-1.27,4.04-2.87,7.79-4.79,11.25h28.72V58.89h-18.34Z"/>
        <path class="cls-1" d="M545.61,83.57c0,6.85-1.02,12.86-3.06,18.05-2.04,5.19-4.83,9.54-8.36,13.04-3.54,3.5-7.75,6.13-12.63,7.9-4.88,1.77-10.13,2.65-15.75,2.65s-10.61-.89-15.46-2.65c-4.85-1.77-9.08-4.4-12.69-7.9s-6.46-7.84-8.54-13.04c-2.08-5.19-3.11-11.21-3.11-18.05s1.08-12.86,3.23-18.05c2.15-5.19,5.06-9.56,8.71-13.09,3.65-3.54,7.88-6.19,12.69-7.96,4.81-1.77,9.86-2.65,15.17-2.65s10.61,.88,15.46,2.65c4.85,1.77,9.07,4.42,12.69,7.96,3.61,3.54,6.46,7.9,8.54,13.09s3.11,11.21,3.11,18.05Zm-61.03,0c0,3.92,.48,7.46,1.44,10.61,.96,3.15,2.35,5.87,4.15,8.13,1.81,2.27,4.02,4.02,6.63,5.25,2.61,1.23,5.61,1.85,9,1.85s6.29-.61,8.94-1.85c2.65-1.23,4.88-2.98,6.69-5.25,1.81-2.27,3.19-4.98,4.15-8.13,.96-3.15,1.44-6.69,1.44-10.61s-.48-7.48-1.44-10.67c-.96-3.19-2.35-5.92-4.15-8.19s-4.04-4.02-6.69-5.25c-2.65-1.23-5.63-1.85-8.94-1.85s-6.38,.63-9,1.9c-2.62,1.27-4.83,3.04-6.63,5.31-1.81,2.27-3.19,5-4.15,8.19-.96,3.19-1.44,6.71-1.44,10.56Z"/>
        <path class="cls-1" d="M587.61,43.66c1.39,2.54,2.99,5.67,4.8,9.4,1.81,3.73,3.7,7.77,5.67,12.11,1.97,4.35,3.91,8.79,5.84,13.33,1.93,4.54,3.74,8.81,5.44,12.8,1.7-4,3.51-8.27,5.44-12.8,1.93-4.54,3.87-8.98,5.84-13.33,1.97-4.34,3.86-8.38,5.67-12.11,1.81-3.73,3.41-6.86,4.8-9.4h16.38c.77,5.31,1.48,11.25,2.13,17.82,.65,6.58,1.23,13.42,1.73,20.53,.5,7.11,.96,14.25,1.38,21.4,.42,7.15,.79,13.88,1.1,20.19h-17.53c-.23-7.77-.54-16.23-.92-25.38-.39-9.15-.96-18.38-1.73-27.69-1.39,3.23-2.93,6.81-4.63,10.73-1.7,3.92-3.38,7.84-5.03,11.77-1.66,3.92-3.26,7.67-4.8,11.25s-2.85,6.63-3.93,9.17h-12.57c-1.08-2.54-2.39-5.59-3.93-9.17s-3.15-7.33-4.8-11.25c-1.66-3.92-3.34-7.84-5.03-11.77-1.7-3.92-3.24-7.5-4.63-10.73-.77,9.31-1.35,18.54-1.73,27.69-.39,9.15-.69,17.61-.92,25.38h-17.53c.31-6.3,.67-13.04,1.1-20.19,.42-7.15,.88-14.28,1.38-21.4,.5-7.11,1.08-13.96,1.73-20.53,.65-6.58,1.36-12.52,2.13-17.82h17.19Z"/>
        <path class="cls-1" d="M427.71,172.06v79.95h-18v-64.72h-29.76v64.72h-18v-79.95h65.76Z"/>
        <path class="cls-1" d="M451.94,252.01v-79.95h17.88v47.18c2.77-4.15,5.73-8.48,8.88-12.98,3.15-4.5,6.32-8.84,9.52-13.04,3.19-4.19,6.33-8.13,9.4-11.82,3.08-3.69,5.88-6.81,8.42-9.34h14.65v79.95h-17.77v-52.37c-6.77,7.92-13.15,16.34-19.15,25.26-6,8.92-11.58,17.96-16.73,27.11h-15.11Z"/>
        <path class="cls-1" d="M604.22,172.06v15.34h-24.11v64.6h-18v-64.6h-24.11v-15.34h66.22Z"/>
        <path class="cls-1" d="M695.01,211.98c0,6.85-1.02,12.86-3.06,18.05-2.04,5.19-4.83,9.54-8.36,13.04-3.54,3.5-7.75,6.13-12.63,7.9-4.88,1.77-10.13,2.65-15.75,2.65s-10.61-.89-15.46-2.65c-4.85-1.77-9.08-4.4-12.69-7.9s-6.46-7.84-8.54-13.04c-2.08-5.19-3.11-11.21-3.11-18.05s1.08-12.86,3.23-18.05c2.15-5.19,5.06-9.56,8.71-13.09,3.65-3.54,7.88-6.19,12.69-7.96,4.81-1.77,9.86-2.65,15.17-2.65s10.61,.88,15.46,2.65c4.85,1.77,9.07,4.42,12.69,7.96,3.61,3.54,6.46,7.9,8.54,13.09,2.08,5.19,3.11,11.21,3.11,18.05Zm-61.03,0c0,3.92,.48,7.46,1.44,10.61,.96,3.15,2.35,5.87,4.15,8.13,1.81,2.27,4.02,4.02,6.63,5.25,2.61,1.23,5.61,1.85,9,1.85s6.29-.61,8.94-1.85c2.65-1.23,4.88-2.98,6.69-5.25,1.81-2.27,3.19-4.98,4.15-8.13,.96-3.15,1.44-6.69,1.44-10.61s-.48-7.48-1.44-10.67c-.96-3.19-2.35-5.92-4.15-8.19s-4.04-4.02-6.69-5.25c-2.65-1.23-5.63-1.85-8.94-1.85s-6.38,.63-9,1.9c-2.62,1.27-4.83,3.04-6.63,5.31-1.81,2.27-3.19,5-4.15,8.19-.96,3.19-1.44,6.71-1.44,10.56Z"/>
        <path class="cls-1" d="M737,172.06c1.39,2.54,2.99,5.67,4.8,9.4,1.81,3.73,3.7,7.77,5.67,12.11,1.97,4.35,3.91,8.79,5.84,13.33,1.93,4.54,3.74,8.81,5.44,12.8,1.7-4,3.51-8.27,5.44-12.8,1.93-4.54,3.87-8.98,5.84-13.33,1.97-4.34,3.86-8.38,5.67-12.11,1.81-3.73,3.41-6.86,4.8-9.4h16.38c.77,5.31,1.48,11.25,2.13,17.82,.65,6.58,1.23,13.42,1.73,20.53,.5,7.11,.96,14.25,1.38,21.4,.42,7.15,.79,13.88,1.1,20.19h-17.53c-.23-7.77-.54-16.23-.92-25.38-.39-9.15-.96-18.38-1.73-27.69-1.39,3.23-2.93,6.81-4.63,10.73-1.7,3.92-3.38,7.84-5.03,11.77-1.66,3.92-3.26,7.67-4.8,11.25s-2.85,6.63-3.93,9.17h-12.57c-1.08-2.54-2.39-5.59-3.93-9.17s-3.15-7.33-4.8-11.25c-1.66-3.92-3.34-7.84-5.03-11.77-1.7-3.92-3.24-7.5-4.63-10.73-.77,9.31-1.35,18.54-1.73,27.69-.39,9.15-.69,17.61-.92,25.38h-17.53c.31-6.3,.67-13.04,1.1-20.19,.42-7.15,.88-14.28,1.38-21.4,.5-7.11,1.08-13.96,1.73-20.53,.65-6.58,1.36-12.52,2.13-17.82h17.19Z"/>
        <path class="cls-1" d="M890.77,236.78h13.84v30.57h-17.3v-15.34h-62.3v-79.95h18v64.72h29.76v-64.72h18v64.72Z"/>
        <path class="cls-1" d="M977.75,252.01c-.89-2.78-1.85-5.63-2.87-8.56-1.02-2.93-2.04-5.84-3.06-8.75h-31.22c-1.01,2.92-2.02,5.84-3.04,8.77-1.02,2.93-1.96,5.78-2.83,8.53h-18.69c3.01-8.61,5.86-16.57,8.56-23.88,2.7-7.31,5.34-14.19,7.93-20.65,2.58-6.46,5.13-12.59,7.64-18.4,2.51-5.81,5.11-11.48,7.81-17.02h17.06c2.63,5.54,5.22,11.21,7.76,17.02,2.55,5.81,5.12,11.94,7.71,18.4s5.24,13.35,7.94,20.65c2.7,7.31,5.56,15.27,8.58,23.88h-19.27Zm-21.62-61.83c-.4,1.16-.99,2.74-1.76,4.74-.77,2-1.65,4.31-2.64,6.93-.99,2.62-2.09,5.5-3.31,8.65-1.22,3.15-2.46,6.45-3.72,9.91h22.86c-1.22-3.47-2.41-6.78-3.56-9.94-1.15-3.16-2.24-6.05-3.27-8.67-1.03-2.62-1.94-4.93-2.72-6.92-.78-2-1.41-3.56-1.89-4.69Z"/>
      </g>
    </g>
  </g>
</svg>