<svg width="244" height="74" viewBox="0 0 244 74" fill="none" xmlns="http://www.w3.org/2000/svg">
<g clip-path="url(#clip0_3_9)">
<path d="M19.08 47.57C18.17 48.74 19.2 52.61 19.73 53.94C20.14 54.97 20.55 56.05 21.63 56.51C23.62 57.36 25.54 55.49 25.14 53.72C24.67 51.64 22.98 48.75 21.39 47.32C20.78 46.77 19.66 46.81 19.08 47.56M15.67 48.51C15.74 44.28 20.74 42.47 23.52 45.09C25.56 47.03 27.58 50.36 28.16 53.08C29.06 57.31 24.7 61.15 20.44 59.33C18.45 58.48 17.62 56.94 16.88 55.06C16.08 53.04 15.63 50.7 15.68 48.51H15.67ZM35.01 47.43C35.57 46.9 35.95 46.18 36.03 45.36C36.15 42.8 35.08 38.94 33.68 36.79C32.8 35.45 30.39 35.54 29.83 37.47C29.08 40.15 28.99 43.15 29.64 45.86C30.2 48.2 33.17 49.15 35.01 47.44V47.43ZM39.09 45.6C38.66 50.59 32.84 53.14 28.89 50.03C27.83 49.2 26.97 47.94 26.65 46.54C25.9 43.32 25.96 39.81 26.88 36.63C28.15 32.16 34 31.52 36.32 35.21C38.14 38.27 39.11 41.83 39.11 45.39C39.11 45.46 39.11 45.53 39.1 45.6H39.09ZM61.79 55.06C61.05 56.94 60.22 58.48 58.23 59.33C53.95 61.16 49.6 57.27 50.5 53.08C51.07 50.44 53.18 46.83 55.2 45.04C58.17 42.41 62.96 44.5 62.99 48.52C63 50.83 62.63 52.93 61.79 55.07V55.06ZM58.3 55.32C59.37 53.27 59.96 50.87 59.92 48.56C59.9 47.05 58.15 46.52 57.26 47.32C55.68 48.74 53.98 51.63 53.51 53.72C52.94 56.23 56.65 58.14 58.29 55.33L58.3 55.32ZM48.78 37.24C48.09 35.53 45.82 35.5 44.98 36.79C43.58 38.94 42.52 42.8 42.63 45.36C42.73 47.65 45.7 49.31 47.87 47.61C49.02 46.71 49.19 45.31 49.34 43.94C49.59 41.76 49.41 39.55 48.82 37.45C48.8 37.38 48.78 37.3 48.78 37.23V37.24ZM51.82 36.62C52.24 38.11 52.54 40.48 52.54 42.03C52.54 43.58 52.36 45.07 52.02 46.56C50.97 51.1 45.19 53.06 41.57 49.68C40.48 48.66 39.57 46.95 39.57 45.39C39.57 41.83 40.54 38.27 42.36 35.21C44.7 31.5 50.57 32.2 51.83 36.62H51.82ZM75.59 37.65L42.05 4.09C40.61 2.74 38.04 2.74 36.6 4.09L3.08 37.65V47.19L34.43 15.81C36.92 13.31 41.5 13.21 44.23 15.81L75.58 47.2V37.66L75.59 37.65ZM25.32 70.9C23.9 68.91 23.53 66.25 24.47 63.94C26.23 59.74 28.78 56.38 32.2 53.4C36.37 49.77 42.29 49.77 46.46 53.4C49.88 56.38 52.44 59.77 54.2 63.96C55.13 66.26 54.76 68.93 53.34 70.91H61.62C63.83 70.89 65.72 69.03 65.79 66.93V41.76L42.06 17.99C40.62 16.64 38.05 16.64 36.61 17.99L12.79 41.82V66.92C12.86 69.01 14.76 70.88 16.97 70.9H25.33H25.32ZM36.73 68.13C39.26 67.16 42.49 67.72 44.26 69.58C47.43 72.9 52.97 69.45 51.35 65.14C49.75 61.34 47.5 58.38 44.41 55.69C41.51 53.11 37.14 53.11 34.24 55.69C31.15 58.38 28.9 61.32 27.31 65.12C25.67 69.47 31.27 72.88 34.41 69.58C34.97 69 35.99 68.41 36.74 68.12L36.73 68.13ZM39.33 70.72C36.79 70.72 36.6 72.37 34.2 73.38C33.09 73.85 32.12 73.99 30.94 73.96H16.93C13.12 73.91 9.97 70.93 9.72 67.12C9.72 67.05 9.72 66.98 9.72 66.91V44.88L2.71 51.9C1.66 53.03 0 52.24 0 50.9V37.01C0 36.62 0.15 36.23 0.45 35.93L34.43 1.91C37.16 -0.690002 41.74 -0.590002 44.23 1.91L78.21 35.93C78.49 36.21 78.66 36.59 78.66 37.01V50.83C78.69 52.3 76.99 52.94 76.03 51.98L68.87 44.81V66.91C68.93 68.7 67.85 70.75 66.61 71.93C65.32 73.16 63.57 73.93 61.66 73.95H47.37C45.22 73.95 43.59 73.14 42.08 71.7C41.41 71.07 40.29 70.7 39.35 70.7L39.33 70.72Z" fill="#DDA16C"/>
</g>
<path d="M112.016 31.08V14.12H103.248L103.088 18.088C103.024 19.5813 102.928 21 102.8 22.344C102.693 23.6666 102.512 24.872 102.256 25.96C102.021 27.048 101.691 27.9546 101.264 28.68C100.837 29.4053 100.315 29.8853 99.696 30.12L95.216 29.48C96.0267 29.5226 96.688 29.2453 97.2 28.648C97.7333 28.0506 98.1493 27.2186 98.448 26.152C98.7467 25.0853 98.9707 23.8373 99.12 22.408C99.2693 20.9573 99.376 19.3893 99.44 17.704L99.696 10.6H116.112V31.08H112.016ZM94.448 37.768L94.48 29.48H119.344V37.768H115.504V33H98.32V37.768H94.448Z" fill="#DDA16C"/>
<path d="M130.116 33.224C128.367 33.224 126.81 32.8506 125.444 32.104C124.079 31.336 123.002 30.2906 122.212 28.968C121.423 27.6453 121.028 26.1413 121.028 24.456C121.028 22.7493 121.423 21.2453 122.212 19.944C123.002 18.6213 124.079 17.5866 125.444 16.84C126.81 16.0933 128.367 15.72 130.116 15.72C131.887 15.72 133.455 16.0933 134.82 16.84C136.207 17.5866 137.284 18.6106 138.052 19.912C138.842 21.2133 139.236 22.728 139.236 24.456C139.236 26.1413 138.842 27.6453 138.052 28.968C137.284 30.2906 136.207 31.336 134.82 32.104C133.455 32.8506 131.887 33.224 130.116 33.224ZM130.116 29.8C131.098 29.8 131.972 29.5866 132.74 29.16C133.508 28.7333 134.106 28.1146 134.532 27.304C134.98 26.4933 135.204 25.544 135.204 24.456C135.204 23.3466 134.98 22.3973 134.532 21.608C134.106 20.7973 133.508 20.1786 132.74 19.752C131.972 19.3253 131.108 19.112 130.148 19.112C129.167 19.112 128.292 19.3253 127.524 19.752C126.778 20.1786 126.18 20.7973 125.732 21.608C125.284 22.3973 125.06 23.3466 125.06 24.456C125.06 25.544 125.284 26.4933 125.732 27.304C126.18 28.1146 126.778 28.7333 127.524 29.16C128.292 29.5866 129.156 29.8 130.116 29.8Z" fill="#DDA16C"/>
<path d="M143.188 33V15.912H147.38L154.26 28.04H152.596L159.828 15.912H163.572L163.604 33H159.988V20.2L160.628 20.616L154.228 31.208H152.5L146.068 20.328L146.836 20.136V33H143.188Z" fill="#DDA16C"/>
<path d="M97.168 68V45.6H116.976V68H112.88V48.096L113.84 49.12H100.304L101.264 48.096V68H97.168Z" fill="#DDA16C"/>
<path d="M122.844 68V50.912H126.844V62.176L136.284 50.912H139.932V68H135.932V56.736L126.524 68H122.844Z" fill="#DDA16C"/>
<path d="M148.865 68V53.344L149.793 54.304H142.849V50.912H158.849V54.304H151.937L152.865 53.344V68H148.865Z" fill="#DDA16C"/>
<path d="M168.617 68.224C166.867 68.224 165.31 67.8506 163.944 67.104C162.579 66.336 161.502 65.2906 160.713 63.968C159.923 62.6453 159.528 61.1413 159.528 59.456C159.528 57.7493 159.923 56.2453 160.713 54.944C161.502 53.6213 162.579 52.5866 163.944 51.84C165.31 51.0933 166.867 50.72 168.617 50.72C170.387 50.72 171.955 51.0933 173.32 51.84C174.707 52.5866 175.784 53.6106 176.552 54.912C177.342 56.2133 177.736 57.728 177.736 59.456C177.736 61.1413 177.342 62.6453 176.552 63.968C175.784 65.2906 174.707 66.336 173.32 67.104C171.955 67.8506 170.387 68.224 168.617 68.224ZM168.617 64.8C169.598 64.8 170.473 64.5866 171.241 64.16C172.009 63.7333 172.606 63.1146 173.033 62.304C173.481 61.4933 173.704 60.544 173.704 59.456C173.704 58.3466 173.481 57.3973 173.033 56.608C172.606 55.7973 172.009 55.1786 171.241 54.752C170.473 54.3253 169.608 54.112 168.648 54.112C167.667 54.112 166.792 54.3253 166.024 54.752C165.278 55.1786 164.68 55.7973 164.232 56.608C163.784 57.3973 163.561 58.3466 163.561 59.456C163.561 60.544 163.784 61.4933 164.232 62.304C164.68 63.1146 165.278 63.7333 166.024 64.16C166.792 64.5866 167.657 64.8 168.617 64.8Z" fill="#DDA16C"/>
<path d="M181.688 68V50.912H185.88L192.76 63.04H191.096L198.328 50.912H202.072L202.104 68H198.488V55.2L199.128 55.616L192.728 66.208H191L184.568 55.328L185.336 55.136V68H181.688Z" fill="#DDA16C"/>
<path d="M207.469 68V50.912H211.469V64.608H219.629V50.912H223.629V68H207.469ZM222.477 71.808V67.904L223.405 68H219.629V64.608H226.221V71.808H222.477Z" fill="#DDA16C"/>
<path d="M240.15 68V64.544L239.926 63.808V57.76C239.926 56.5866 239.574 55.68 238.87 55.04C238.166 54.3786 237.099 54.048 235.67 54.048C234.71 54.048 233.76 54.1973 232.822 54.496C231.904 54.7946 231.126 55.2106 230.486 55.744L228.918 52.832C229.835 52.128 230.923 51.6053 232.182 51.264C233.462 50.9013 234.784 50.72 236.15 50.72C238.624 50.72 240.534 51.3173 241.878 52.512C243.243 53.6853 243.926 55.5093 243.926 57.984V68H240.15ZM234.774 68.224C233.494 68.224 232.374 68.0106 231.414 67.584C230.454 67.136 229.707 66.528 229.174 65.76C228.662 64.9706 228.406 64.0853 228.406 63.104C228.406 62.144 228.63 61.28 229.078 60.512C229.547 59.744 230.304 59.136 231.35 58.688C232.395 58.24 233.782 58.016 235.51 58.016H240.47V60.672H235.798C234.432 60.672 233.515 60.896 233.046 61.344C232.576 61.7706 232.342 62.304 232.342 62.944C232.342 63.6693 232.63 64.2453 233.206 64.672C233.782 65.0986 234.582 65.312 235.606 65.312C236.587 65.312 237.462 65.088 238.23 64.64C239.019 64.192 239.584 63.5306 239.926 62.656L240.598 65.056C240.214 66.0586 239.52 66.8373 238.518 67.392C237.536 67.9466 236.288 68.224 234.774 68.224Z" fill="#DDA16C"/>
<defs>
<clipPath id="clip0_3_9">
<rect width="78.65" height="73.97" fill="white"/>
</clipPath>
</defs>
</svg>
