<svg width="175" height="62" viewBox="0 0 175 62" fill="none" xmlns="http://www.w3.org/2000/svg">
<g clip-path="url(#clip0_158_194)">
<path fill-rule="evenodd" clip-rule="evenodd" d="M30.2065 41.4268C30.1408 41.4268 30.1408 41.4268 30.0752 41.4268C29.8781 41.4268 29.6155 41.4971 29.4842 41.7077C29.2871 41.9184 29.2215 42.1992 29.2215 42.4801C29.2215 42.7609 29.2871 42.9716 29.2871 43.112C29.2871 43.2524 29.2215 43.2524 29.0902 43.2524C27.9082 43.463 28.0396 45.0078 28.8932 45.5695C28.6305 44.7971 29.8125 44.5163 29.4842 45.5695C30.4692 45.4291 31.7825 45.71 32.4391 46.6227C32.8331 47.1845 33.0958 48.027 33.4241 48.7994C33.7524 49.5718 34.2122 50.2739 34.6061 50.7655C35.0001 51.2569 35.3941 51.5378 35.7881 51.6782C36.9044 52.0293 38.7431 50.625 39.3998 51.1166C37.8894 47.9569 35.7224 53.2932 34.1464 48.308C33.4241 46.061 32.7018 44.3057 30.0752 44.9376C30.0752 44.095 29.1558 44.1652 28.8932 44.5865C28.5648 43.7439 29.2871 43.463 30.0095 43.3928C29.5498 42.4098 29.6155 41.8481 30.2065 41.4268ZM57.8519 52.3102C57.9176 52.1698 57.9832 51.9591 58.0489 51.6782C59.2309 47.4653 59.3622 42.6907 57.8519 38.548C55.6849 32.4393 50.169 28.5774 42.486 27.1731C52.4673 30.5435 56.867 35.5989 56.6699 45.8503C50.4973 41.4971 43.5367 40.9353 41.3041 48.027C45.5724 41.4268 54.9626 44.8673 57.8519 52.3102ZM40.6474 25.9093C44.653 20.7133 35.7881 17.2728 35.9195 23.3113C35.3284 22.9602 34.4747 22.7496 33.8181 23.1708C32.9645 23.7326 32.7675 24.5752 33.0301 25.5582C32.1108 25.9093 31.1915 26.7518 30.5348 27.454C29.8125 28.1561 29.0902 29.069 28.4335 30.052C27.7769 31.035 27.2515 32.1584 26.8575 33.1414C26.4636 34.1245 26.2665 34.8968 26.2009 35.8096C26.0696 36.7224 26.0696 37.7054 26.0696 38.4075C26.0696 39.1097 26.1352 39.4608 26.3322 39.8119C26.5292 40.163 26.7919 40.5141 27.0546 40.7247C27.3172 40.9353 27.5798 41.0055 27.9082 40.9353C28.2365 40.9353 28.6962 40.7949 29.0902 40.7949C29.4842 40.7949 29.7468 40.8652 29.9438 41.0055C30.0095 41.0758 30.0752 41.146 30.1408 41.146C30.2722 40.2331 29.4185 40.0928 28.5648 40.163C27.1859 40.2331 27.1202 39.1799 27.1202 38.1267C27.1202 32.8606 30.6662 28.2264 34.2778 25.7688C33.2928 24.2242 34.8031 23.3815 36.0507 24.1539C37.2984 19.309 42.0264 22.89 40.6474 25.9093ZM31.1258 32.9308C31.9139 32.8606 32.5048 32.7903 32.9645 32.65C32.9645 32.2286 32.8331 31.7371 32.5705 31.3158C33.0301 31.5967 33.4241 31.8776 33.6868 32.2989C34.3435 31.7371 34.5405 30.7541 34.6061 28.9285C34.3435 29.7009 34.0151 30.052 33.6212 30.403C33.6212 30.052 33.5555 29.42 33.2928 28.9285C33.1614 31.5967 31.6512 28.5774 31.1258 32.9308ZM40.91 28.5774C38.0865 32.2286 43.1427 36.3713 37.0357 39.1799C41.6324 34.3351 36.2478 31.6669 40.91 28.5774ZM31.3885 42.2694C34.0151 43.2524 34.8031 43.9546 35.9851 46.5525C38.5461 45.71 37.2328 42.3396 39.334 40.8651C36.6418 40.9353 36.9044 44.2354 36.3791 44.9376C34.8031 42.7609 33.8181 41.9885 31.3885 42.2694ZM39.6624 25.6986C39.7938 21.907 36.1165 23.1708 37.1015 25.8391C37.0357 24.3645 38.9401 23.873 39.6624 25.6986ZM34.6718 35.7394C32.0452 36.3011 30.5348 36.5118 28.6305 38.6182C30.9289 37.2139 34.2122 36.5118 37.6924 37.2139C34.0151 37.0032 31.8481 37.565 28.8932 38.9693C31.1915 38.3374 33.9495 38.3374 36.0507 39.3204C33.8838 38.7586 31.7168 38.6885 29.4842 39.3906C29.2215 39.4608 28.7619 39.6012 28.4335 39.6012C27.9082 39.6715 27.7769 38.9693 28.1709 38.4778C30.1408 36.2309 31.6512 35.8096 34.6718 35.7394ZM55.5536 43.463C49.8407 36.0202 45.047 39.1799 44.9157 30.1924C46.6887 37.9863 53.6493 35.8799 55.5536 43.463ZM53.9776 54.6975C53.0583 51.3272 51.3509 49.642 47.805 49.9229C50.6943 50.9761 52.0076 51.8187 53.9776 54.6975ZM55.4879 57.8572C61.0038 57.0146 70.0001 60.3849 73.6774 52.4506C76.5667 46.2716 70.5911 41.6374 66.1258 44.3057C64.6155 45.2184 64.4185 47.6057 65.6662 48.8696C65.9945 49.1505 66.3229 49.3612 66.5854 49.642C66.8481 49.9229 66.9138 50.2037 66.8481 50.4144C66.7825 50.625 66.4542 50.8356 65.9288 50.9059C62.8425 51.3974 60.9382 51.1166 58.0489 53.2931C60.6099 52.0293 64.6155 52.591 66.7825 52.2399C68.0301 52.0293 68.7525 50.4846 68.0301 49.2207C67.5048 48.2377 66.3229 47.8867 66.3229 46.9738C66.3229 44.446 72.4297 43.6035 72.6924 49.642C72.8894 53.8549 68.5555 56.1018 64.8782 56.5231C61.4636 56.8741 57.0639 56.5231 55.4879 57.8572ZM38.8088 52.3804C38.8744 52.9421 39.2684 53.5741 39.334 53.9953C39.334 54.2762 38.3491 54.0655 38.0865 54.1358C37.4955 54.206 36.9044 54.9081 36.9701 55.4698C37.6267 55.3295 38.5461 55.6103 38.7431 56.0316C38.8088 56.172 38.7431 56.172 38.4148 56.172C37.7581 56.172 36.6418 55.6805 35.7881 55.9614C35.5255 56.0316 35.1314 56.4529 35.3284 56.7338C34.9345 56.5933 34.4091 57.3657 34.7374 58.2784C36.7731 58.77 43.2741 58.5594 45.5724 57.9976C45.3097 56.3125 48.396 55.6805 52.4016 57.8572C48.8557 52.8017 43.3397 54.206 43.7337 57.9274C41.6981 58.1381 38.5461 58.2083 35.4597 57.9274C35.3941 57.3657 35.5255 57.2252 36.2478 57.2252C35.4597 55.8209 38.2834 56.9444 39.7281 56.7338C39.2684 55.5401 38.6117 55.1188 37.7581 55.0486C38.1521 54.4868 39.7938 55.3996 41.3041 54.5571C40.3848 53.9252 39.4654 53.223 38.8088 52.3804Z" fill="#373737"/>
<path fill-rule="evenodd" clip-rule="evenodd" d="M19.7655 26.5413H20.0938C22.2608 26.5413 24.0994 28.4372 24.0994 30.8245V32.0182C24.0994 29.7712 22.3921 27.9456 20.2908 27.9456C18.1895 27.9456 16.4822 29.7712 16.4822 32.0182V33.8437H24.0994V34.9671H15.7599V30.7542C15.7599 28.4372 17.5328 26.5413 19.7655 26.5413ZM17.9268 12.0068V1.61494H30.1407L20.0938 3.37033V10.743L17.9268 12.0068ZM67.9644 41.4972V25.0668H78.1426L42.2889 2.94904L68.6867 21.9071H63.7617L67.9644 41.4972ZM59.2964 26.5413H58.9681C56.8011 26.5413 54.9625 28.4372 54.9625 30.8245V32.0182C54.9625 29.7712 56.6698 27.9456 58.7711 27.9456C60.8724 27.9456 62.5797 29.7712 62.5797 32.0182V33.8437H57.9831L63.2364 34.9671V30.7542C63.2364 28.4372 61.4634 26.5413 59.2964 26.5413ZM37.6266 10.2514H38.2833C42.5516 10.2514 46.0975 13.9729 46.0975 18.607V20.9241C46.0975 16.5708 42.7486 12.9898 38.6773 12.9898C34.606 12.9898 31.257 16.5708 31.257 20.9241V24.3646L29.9437 25.2775V18.607C29.878 13.9729 33.3584 10.2514 37.6266 10.2514ZM19.6342 40.5843H19.9625C22.3921 40.5843 24.4277 42.761 24.4277 45.359V46.6931C24.4277 44.1653 22.5235 42.1291 20.1595 42.1291C17.7955 42.1291 15.8912 44.1653 15.8912 46.6931V48.7995H24.3621V50.0634H15.2345V45.359C15.2345 42.761 17.2045 40.5843 19.6342 40.5843ZM31.5197 56.5232L6.69794 58.0679L9.58728 55.6104L0 59.0509H33.0957L31.5197 56.5232ZM10.4409 56.6636V25.0668H0.32833L40.9099 0L9.71858 21.9071H14.6435L10.4409 56.6636Z" fill="#F48245"/>
<path d="M121.22 35.1779V21.1348H118.396L114.456 33.6332L110.516 21.1348H107.692V35.1779H109.596V23.5925L113.209 35.1779H115.703L119.316 23.5925V35.1779H121.22ZM103.293 25.4882V30.7543C103.293 31.2459 103.293 31.6672 103.227 32.0183C103.161 32.3693 103.096 32.6502 102.965 32.931C102.833 33.2119 102.636 33.3523 102.373 33.4928C102.11 33.6332 101.717 33.7034 101.257 33.7034H99.8127C99.4845 33.7034 99.1562 33.6332 98.8933 33.4226C98.6303 33.2119 98.4336 33.0013 98.2368 32.6502C98.1053 32.3693 97.9738 32.0183 97.9085 31.597C97.8424 31.2459 97.7771 30.8948 97.7771 30.5437V25.4882C97.7771 25.1371 97.7771 24.7861 97.8424 24.435C97.8424 24.0839 97.9086 23.8031 98.0391 23.5222C98.1706 23.2414 98.3021 23.0307 98.4988 22.8902C98.6965 22.7498 99.0247 22.6094 99.353 22.6094H101.652C102.045 22.6094 102.308 22.6796 102.505 22.8902C102.702 23.0307 102.899 23.2414 102.965 23.5222C103.096 23.8031 103.161 24.0839 103.161 24.435C103.293 24.7861 103.293 25.1371 103.293 25.4882ZM105.853 30.7543V25.5584C105.853 24.9265 105.788 24.2946 105.723 23.7328C105.657 23.1712 105.525 22.7498 105.328 22.3285C105.132 21.9775 104.803 21.6264 104.409 21.4158C104.015 21.2051 103.49 21.0647 102.768 21.0647H98.4335C97.7771 21.0647 97.2512 21.2051 96.7915 21.4158C96.3979 21.6264 96.0697 21.9072 95.8729 22.3285C95.6753 22.6796 95.5438 23.1712 95.4785 23.7328C95.4132 24.2946 95.347 24.8563 95.347 25.5584V30.7543C95.347 31.3863 95.4132 32.0183 95.4785 32.5799C95.5438 33.1417 95.6753 33.5629 95.9382 33.9842C96.135 34.4056 96.4632 34.6864 96.8576 34.8971C97.2512 35.1077 97.7771 35.1779 98.4335 35.1779H102.768C103.49 35.1779 104.015 35.0375 104.409 34.8269C104.803 34.6162 105.132 34.3353 105.328 33.914C105.525 33.4928 105.657 33.0715 105.723 32.5097C105.788 32.0183 105.853 31.3863 105.853 30.7543ZM84.578 22.1881C84.578 21.9072 84.578 21.5562 84.6436 21.1348C84.7093 20.7838 84.7749 20.4327 84.972 20.0816C85.1033 19.7305 85.3003 19.5199 85.563 19.3093C85.8257 19.0986 86.0883 18.9583 86.4166 18.9583H89.7V33.7034H84.6436V22.1881H84.578ZM80.9006 35.1779H93.5082V33.7034H92.1952V17.554H85.1033C84.578 17.554 84.184 17.6943 83.7899 18.0454C83.4616 18.3262 83.1333 18.7476 82.9363 19.1689C82.7393 19.5902 82.5423 20.1519 82.411 20.7136C82.2797 21.2753 82.2797 21.7669 82.2797 22.2583V33.7034H80.9664V35.1779H80.9006Z" fill="#F48245"/>
<path d="M169.09 48.308V49.8527H169.878C169.944 49.8527 170.009 49.8527 170.141 49.8527C170.206 49.8527 170.272 49.8527 170.404 49.8527H170.797C171.192 49.8527 171.52 49.9229 171.782 49.9932C172.045 50.0634 172.242 50.2038 172.373 50.4145C172.505 50.6251 172.57 50.9059 172.636 51.1869C172.702 51.538 172.702 51.889 172.702 52.3805C172.702 52.5912 172.702 52.872 172.636 53.1529C172.636 53.5039 172.57 53.7848 172.439 54.1358C172.373 54.4168 172.242 54.6976 172.111 54.9082C171.98 55.1189 171.782 55.2593 171.52 55.2593H168.039V46.5527C168.039 45.8505 168.105 45.2887 168.302 44.8674C168.499 44.4462 168.893 44.2355 169.616 44.2355H171.585C171.848 44.2355 172.045 44.3057 172.177 44.4462C172.308 44.5866 172.439 44.7271 172.505 44.8674C172.57 45.0079 172.636 45.2185 172.702 45.4292C172.702 45.6398 172.768 45.7803 172.768 45.9208C172.768 46.342 172.768 46.693 172.702 47.0441C172.636 47.325 172.505 47.6059 172.308 47.8165C172.111 48.0272 171.782 48.1676 171.389 48.2378C170.994 48.308 170.404 48.3783 169.746 48.3783H169.09V48.308ZM165.478 56.7338H172.439C172.899 56.7338 173.293 56.5934 173.621 56.3125C173.949 56.0317 174.212 55.6806 174.409 55.3295C174.606 54.9082 174.737 54.4869 174.869 53.9955C174.935 53.5039 175 53.0125 175 52.5912C175 51.9592 174.935 51.3272 174.737 50.6251C174.54 49.9229 174.212 49.3613 173.818 48.94C174.277 48.6591 174.606 48.2378 174.737 47.8165C174.935 47.3251 175 46.7633 175 46.0611C175 45.6398 174.935 45.2887 174.869 44.8674C174.803 44.4462 174.606 44.0951 174.409 43.8142C174.212 43.4631 173.949 43.2525 173.621 43.0419C173.293 42.8312 172.899 42.761 172.439 42.761H168.499C167.842 42.761 167.317 42.8312 166.923 43.0419C166.529 43.1823 166.201 43.4631 166.003 43.8142C165.807 44.1653 165.675 44.5866 165.61 45.0781C165.544 45.5696 165.478 46.2016 165.478 46.8335V56.7338ZM161.079 47.0441V52.3102C161.079 52.8018 161.079 53.2231 161.013 53.5742C160.948 53.9252 160.882 54.2061 160.751 54.4869C160.619 54.7679 160.422 54.9082 160.16 55.0487C159.897 55.1891 159.503 55.2593 159.043 55.2593H157.599C157.271 55.2593 156.942 55.1891 156.679 54.9785C156.417 54.7679 156.22 54.5572 156.023 54.2061C155.892 53.9252 155.76 53.5742 155.694 53.1529C155.629 52.8018 155.563 52.4507 155.563 52.0996V47.0441C155.563 46.693 155.563 46.342 155.629 45.9909C155.629 45.6398 155.694 45.359 155.825 45.0781C155.957 44.7973 156.088 44.5866 156.285 44.4462C156.482 44.3057 156.811 44.1653 157.139 44.1653H159.437C159.831 44.1653 160.094 44.2355 160.291 44.4462C160.488 44.5866 160.685 44.7973 160.751 45.0781C160.882 45.359 160.947 45.6398 160.947 45.9909C161.079 46.342 161.079 46.693 161.079 47.0441ZM163.64 52.3102V47.1143C163.64 46.4824 163.574 45.8505 163.508 45.2887C163.443 44.7271 163.311 44.3057 163.115 43.8844C162.918 43.5334 162.59 43.1823 162.195 42.9717C161.802 42.761 161.276 42.6206 160.554 42.6206H156.22C155.563 42.6206 155.037 42.761 154.578 42.9717C154.184 43.1823 153.856 43.4631 153.658 43.8844C153.461 44.2355 153.33 44.7271 153.265 45.2887C153.199 45.8505 153.133 46.4122 153.133 47.1143V52.3102C153.133 52.9423 153.199 53.5742 153.265 54.1358C153.33 54.6976 153.461 55.1189 153.724 55.5401C153.921 55.9615 154.249 56.2423 154.644 56.453C155.037 56.6636 155.563 56.7338 156.22 56.7338H160.554C161.276 56.7338 161.802 56.5934 162.195 56.3828C162.59 56.1722 162.918 55.8912 163.115 55.47C163.311 55.0487 163.443 54.6274 163.508 54.0657C163.574 53.5742 163.64 52.9423 163.64 52.3102ZM151.294 56.7338V42.6908H148.865V48.308H143.808V42.6908H141.313V56.7338H143.808V49.8527H148.865V56.7338H151.294ZM118.593 50.6953H122.271C122.664 50.6953 122.992 50.9059 123.255 51.3272C123.518 51.7486 123.649 52.3102 123.649 53.0124C123.649 54.4869 123.255 55.2593 122.467 55.2593H117.214V56.7338H123.189C124.109 56.7338 124.831 56.3828 125.225 55.6104C125.619 54.838 125.816 53.855 125.816 52.6613C125.816 51.9592 125.685 51.3272 125.488 50.7656C125.225 50.2038 124.963 49.8527 124.635 49.7123C124.831 49.6421 124.963 49.5016 125.094 49.2208C125.225 48.94 125.356 48.6591 125.488 48.308C125.619 47.957 125.685 47.6761 125.751 47.3251C125.816 46.974 125.882 46.693 125.882 46.4122C125.882 45.9909 125.816 45.5697 125.751 45.1484C125.685 44.7271 125.488 44.3057 125.291 43.9547C125.094 43.6036 124.831 43.3228 124.503 43.0419C124.175 42.8312 123.78 42.6908 123.321 42.6908H117.345V44.1653H122.599C123.387 44.1653 123.78 44.8674 123.78 46.342C123.78 47.0441 123.649 47.6059 123.387 48.0272C123.124 48.3783 122.796 48.5889 122.401 48.5889H118.724V50.6953H118.593ZM112.88 56.7338H115.375V42.6908H112.88V56.7338ZM86.9419 44.1653V42.6908H80.9663V56.7338H83.4617V44.1653H86.9419ZM103.358 49.8527V55.2593H106.839C107.101 55.2593 107.299 55.1189 107.43 54.9082C107.561 54.6976 107.692 54.4168 107.758 54.1358C107.824 53.855 107.889 53.5039 107.955 53.1529C107.955 52.8018 108.02 52.5912 108.02 52.3805C108.02 51.9592 108.02 51.538 107.955 51.1869C107.889 50.8358 107.824 50.5549 107.692 50.4145C107.561 50.2038 107.364 50.0634 107.101 49.9932C106.839 49.9229 106.511 49.8527 106.116 49.8527H105.395C105.263 49.8527 105.065 49.8527 105 49.8527H104.935C104.344 49.8527 103.818 49.8527 103.358 49.8527ZM103.358 48.308H104.935H107.824C108.283 48.308 108.678 48.4484 109.006 48.7294C109.334 49.0102 109.596 49.3613 109.794 49.7826C109.991 50.2038 110.122 50.6251 110.254 51.1166C110.319 51.6081 110.384 52.0996 110.384 52.5209C110.384 52.9422 110.319 53.4337 110.254 53.9252C110.188 54.4168 109.991 54.838 109.794 55.2593C109.596 55.6806 109.334 56.0317 109.006 56.2423C108.678 56.5232 108.283 56.6636 107.824 56.6636H100.864V42.6206H103.358V48.308ZM125.356 62L131.463 60.3148L132.711 56.8041L127.72 42.761H130.544L134.156 53.3636L137.505 42.761H139.475L133.171 62H125.356ZM82.608 62L88.7149 60.2446V42.6908H95.8729C96.5293 42.6908 97.0543 42.8312 97.4488 43.0419C97.8423 43.2525 98.1705 43.5334 98.3682 43.9547C98.565 44.3057 98.7617 44.7973 98.8279 45.359C98.8932 45.9208 98.9585 46.4824 98.9585 47.1846V52.3805C98.9585 53.0124 98.8932 53.6444 98.8279 54.2061C98.7617 54.7679 98.6303 55.1891 98.4335 55.6104C98.2367 55.9615 97.9085 56.3125 97.5141 56.5232C97.1205 56.7338 96.5946 56.8041 95.8729 56.8041H92.6549H91.2757V62.0702H82.608V62ZM91.2757 55.2593H92.7202H94.9534C95.347 55.2593 95.6099 55.1891 95.8067 55.0487C96.0034 54.9082 96.2011 54.6976 96.2664 54.4168C96.3979 54.1358 96.4632 53.855 96.4632 53.5039C96.4632 53.1529 96.5293 52.8018 96.5293 52.4507V48.0973C96.5293 47.325 96.5293 46.693 96.4632 46.2016C96.3979 45.71 96.2664 45.2887 96.1349 45.0079C95.9382 44.7271 95.6752 44.5164 95.347 44.376C95.0187 44.2355 94.4937 44.1653 93.9025 44.1653H91.2757V55.2593Z" fill="#373737"/>
</g>
<defs>
<clipPath id="clip0_158_194">
<rect width="175" height="62" fill="white"/>
</clipPath>
</defs>
</svg>
