<?xml version="1.0" encoding="utf-8"?><svg viewBox="0 0 46 46" xmlns="http://www.w3.org/2000/svg" xmlns:xlink="http://www.w3.org/1999/xlink"><style>:root>svg{display:none}:root>svg:target{display:block}</style><svg viewBox="0 0 39 33" id="av" xmlns="http://www.w3.org/2000/svg"><path d="M23.37 16.793a4.537 4.537 0 100-9.073 4.537 4.537 0 000 9.073zm-8.527-2.425a2.112 2.112 0 100-4.223 2.112 2.112 0 000 4.223zm8.527-7.72a2.92 2.92 0 100-5.84 2.92 2.92 0 000 5.84zm-8.527.809a3.728 3.728 0 100-7.457 3.728 3.728 0 000 7.457zm5.679 15.621a1.425 1.425 0 100-2.85 1.425 1.425 0 000 2.85zM8.077 32.106h2.355L6.071 20.23H4.362L0 32.108h2.355l.833-2.267h4.056l.833 2.267-4.233-4.054 1.372-3.735 1.372 3.735H3.844l4.233 4.053zm8.193-8.108l-2.167 5.9-2.166-5.9H9.724l2.979 8.108h2.8l2.979-8.108H16.27zm3.138 0h2.213v8.108h-2.213v-8.108zm10.026 1.787v-1.787h-2.65v-2.236h-2.212v2.236h-1.75v1.787h1.75v3.488c0 1.8.9 3 3.197 3 .887 0 1.665-.325 1.665-.325l-.269-1.75s-.435.13-.97.13c-.657 0-1.412-.283-1.412-1.19v-3.353h2.65zm5.074 4.468c-1.233 0-2.233-.978-2.233-2.184 0-1.206 1-2.184 2.233-2.184 1.234 0 2.233.978 2.233 2.184 0 1.206-1 2.184-2.233 2.184zm0-6.462c-2.398 0-4.343 1.903-4.343 4.248 0 2.346 1.945 4.248 4.343 4.248 2.397 0 4.342-1.902 4.342-4.248 0-2.345-1.945-4.248-4.342-4.248"/></svg><svg viewBox="0 0 24 24" id="bag" xmlns="http://www.w3.org/2000/svg"><path fill-rule="evenodd" clip-rule="evenodd" d="M19.121 6h-2.12A5 5 0 007 6H4.878a2 2 0 00-1.996 1.875l-.75 12A2 2 0 004.129 22h15.742a2 2 0 001.996-2.125l-.75-12A2 2 0 0019.121 6zM7.001 8H4.878l-.75 12H19.87l-.75-12H17v3a1 1 0 11-2 0V8H9v3a1 1 0 11-2 0V8zm5-5a3 3 0 013 3H9a3 3 0 013-3z"/></svg><svg viewBox="0 0 24 24" id="cat" xmlns="http://www.w3.org/2000/svg"><path fill-rule="evenodd" clip-rule="evenodd" d="M14.316 4a7.316 7.316 0 104.417 13.148l3.103 3.102a1 1 0 001.414-1.414l-3.102-3.103A7.316 7.316 0 0014.316 4zM9 11.316a5.316 5.316 0 1110.632 0 5.316 5.316 0 01-10.632 0z"/><path d="M0 16.5a1 1 0 011-1h4a1 1 0 110 2H1a1 1 0 01-1-1zm0-5a1 1 0 011-1h3a1 1 0 110 2H1a1 1 0 01-1-1zm0-5a1 1 0 011-1h4a1 1 0 110 2H1a1 1 0 01-1-1z"/></svg><svg viewBox="0 0 24 24" id="chevron-right" xmlns="http://www.w3.org/2000/svg"><path d="M9.6 7.2l4.8 4.8-4.8 4.8"/></svg><svg viewBox="0 0 24 24" id="close" xmlns="http://www.w3.org/2000/svg"><path d="M17.659 4.929a1 1 0 111.414 1.414L13.416 12l5.657 5.657a1 1 0 01-1.415 1.414l-5.656-5.657-5.657 5.657a1 1 0 01-1.414-1.414L10.587 12 4.931 6.343A1 1 0 116.345 4.93l5.657 5.657 5.656-5.657z"/></svg><svg viewBox="0 0 25 25" id="in" xmlns="http://www.w3.org/2000/svg"><path d="M19.173 4.328a1.502 1.502 0 00-1.5 1.5 1.502 1.502 0 001.5 1.501 1.493 1.493 0 001.061-.439 1.503 1.503 0 000-2.122 1.503 1.503 0 00-1.061-.44z"/><path fill-rule="evenodd" clip-rule="evenodd" d="M6.106 11.87a6.48 6.48 0 01.443-1.85 6.42 6.42 0 11-.443 1.85zm9.342-2.317A4.169 4.169 0 008.334 12.5a4.168 4.168 0 107.114-2.947z"/><path fill-rule="evenodd" clip-rule="evenodd" d="M7.347.075c.53-.023.915-.04 1.4-.052C9.487.005 10.454 0 12.498 0c1.752 0 2.713.004 3.416.016.66.01 1.093.03 1.738.06 1.33.06 2.24.272 3.037.58a6.1 6.1 0 012.213 1.442 6.132 6.132 0 011.443 2.214c.307.795.517 1.703.58 3.034.022.471.038.829.049 1.245.02.76.027 1.714.027 3.909 0 1.339-.002 2.216-.009 2.87a54.228 54.228 0 01-.066 2.283c-.063 1.33-.274 2.24-.581 3.035A6.138 6.138 0 0122.9 22.9a6.12 6.12 0 01-2.212 1.443c-.796.309-1.706.519-3.035.58-1.334.06-1.758.076-5.154.076-3.394 0-3.82-.015-5.154-.076-1.33-.061-2.24-.271-3.034-.58A6.123 6.123 0 012.098 22.9a6.119 6.119 0 01-1.442-2.215c-.308-.795-.52-1.703-.58-3.033C.015 16.32 0 15.895 0 12.5c0-1.615.004-2.56.014-3.248.01-.758.03-1.208.061-1.906.06-1.33.27-2.24.581-3.034A6.134 6.134 0 012.1 2.098 6.123 6.123 0 014.313.656c.39-.152.809-.28 1.291-.378A11.3 11.3 0 017.347.075zm4.033 2.178h1.12c3.339 0 3.734.012 5.053.071 1.218.056 1.88.26 2.32.431a3.88 3.88 0 011.437.935c.237.238.425.47.584.724.134.215.247.447.351.714.106.273.225.63.313 1.152.053.32.096.704.117 1.168.022.487.038.847.05 1.277.018.734.023 1.669.023 3.773 0 3.335-.013 3.731-.072 5.049-.056 1.218-.26 1.88-.43 2.32a3.87 3.87 0 01-.936 1.436 3.862 3.862 0 01-1.436.935c-.44.172-1.103.375-2.321.43a54.57 54.57 0 01-1.577.056c-.699.013-1.644.017-3.475.017-3.338 0-3.733-.012-5.05-.072-1.22-.056-1.88-.26-2.322-.431a3.87 3.87 0 01-1.438-.935 3.884 3.884 0 01-.935-1.436c-.171-.44-.375-1.102-.43-2.321-.06-1.318-.072-1.714-.072-5.051 0-3.339.012-3.732.071-5.05a8.69 8.69 0 01.192-1.539c.075-.33.16-.579.239-.782.226-.584.498-1 .935-1.437A3.9 3.9 0 015.13 2.75c.255-.1.584-.209 1.052-.295a9.393 9.393 0 011.27-.135 50.732 50.732 0 012.242-.063c.435-.004.972-.006 1.687-.005z"/></svg><svg viewBox="0 0 32 32" id="lm" xmlns="http://www.w3.org/2000/svg"><path fill-rule="evenodd" clip-rule="evenodd" d="M15.75 18.552a2.802 2.802 0 100-5.604 2.802 2.802 0 000 5.604zm0 1a3.802 3.802 0 100-7.604 3.802 3.802 0 000 7.604z"/><path fill-rule="evenodd" clip-rule="evenodd" d="M17.155 9.853L15.75 8.11l-1.405 1.743a2 2 0 01-1.771.734l-2.226-.24.239 2.227a2 2 0 01-.734 1.77L8.11 15.75l1.743 1.405a2 2 0 01.734 1.77l-.24 2.227 2.227-.24a2 2 0 011.77.734l1.406 1.743 1.405-1.743a2 2 0 011.77-.733l2.227.239-.24-2.227a2 2 0 01.734-1.77l1.743-1.405-1.743-1.405a2 2 0 01-.733-1.771l.239-2.226-2.227.239a2 2 0 01-1.77-.734zm-.627-2.37a1 1 0 00-1.557 0l-1.405 1.743a1 1 0 01-.885.367l-2.226-.24a1 1 0 00-1.101 1.102l.239 2.226a1 1 0 01-.367.885l-1.743 1.405a1 1 0 000 1.557l1.743 1.405a1 1 0 01.367.886l-.24 2.226a1 1 0 001.102 1.1l2.226-.238a1 1 0 01.885.367l1.405 1.743a1 1 0 001.557 0l1.405-1.743a1 1 0 01.886-.367l2.226.239a1 1 0 001.1-1.101l-.238-2.226a1 1 0 01.367-.886l1.743-1.405a1 1 0 000-1.557l-1.743-1.405a1 1 0 01-.367-.885l.239-2.226a1 1 0 00-1.101-1.101l-2.226.239a1 1 0 01-.886-.367l-1.405-1.743z"/><path fill-rule="evenodd" clip-rule="evenodd" d="M18.665 4.872L15.75 0l-2.915 4.872-4.96-2.762-.088 5.677-5.677.088 2.762 4.96L0 15.75l4.872 2.915-2.762 4.96 5.677.088.088 5.677 4.96-2.762L15.75 31.5l2.915-4.872 4.96 2.762.088-5.677 5.677-.088-2.762-4.96L31.5 15.75l-4.872-2.915 2.762-4.96-5.677-.088-.088-5.677-4.96 2.762zm3.986-1.075l-4.347 2.42-2.554-4.269-2.554 4.27-4.347-2.42-.077 4.974-4.975.077 2.42 4.347-4.269 2.554 4.27 2.554-2.42 4.347 4.974.077.077 4.975 4.347-2.42 2.554 4.269 2.554-4.27 4.347 2.42.077-4.974 4.975-.077-2.42-4.347 4.269-2.554-4.27-2.554 2.42-4.347-4.974-.077-.077-4.975z"/></svg><svg viewBox="0 0 24 24" id="loc" xmlns="http://www.w3.org/2000/svg"><path fill-rule="evenodd" clip-rule="evenodd" d="M15 8a3 3 0 11-6 0 3 3 0 016 0zm-2 0a1 1 0 11-2 0 1 1 0 012 0z"/><path fill-rule="evenodd" clip-rule="evenodd" d="M13.24 17.85C15.253 15.878 19 11.705 19 8c0-3.89-3.134-7-7-7S5 4.11 5 8c0 3.705 3.748 7.878 5.759 9.85a1.756 1.756 0 002.482 0zm1.979-5.397c1.12-1.653 1.78-3.21 1.78-4.453 0-2.781-2.233-5-5-5-2.765 0-5 2.219-5 5 0 1.243.661 2.8 1.782 4.453 1.025 1.512 2.276 2.874 3.219 3.812.943-.938 2.194-2.3 3.219-3.812z"/><path d="M5.888 15.324a1 1 0 00-1.573.207L1.302 20.75A1.5 1.5 0 002.6 23h18.8a1.5 1.5 0 001.3-2.25l-3.015-5.22a1 1 0 00-1.732 1L20.536 21H3.466l2.581-4.469a1 1 0 00-.159-1.207z"/></svg><svg viewBox="0 0 24 24" id="mes" xmlns="http://www.w3.org/2000/svg"><path fill-rule="evenodd" clip-rule="evenodd" d="M2 16a2 2 0 002 2h2v3.773c0 .863 1.02 1.32 1.664.748L12.75 18H20a2 2 0 002-2V5a2 2 0 00-2-2H4a2 2 0 00-2 2v11zm6 2a2 2 0 00-2-2H4V5h16v11h-7.25a2 2 0 00-1.329.505L8 19.546V18z"/></svg><svg viewBox="0 0 22 22" id="pen" xmlns="http://www.w3.org/2000/svg"><path d="M17.068 2.116a1.992 1.992 0 012.817 2.817L6.82 17.998 2.56 19.44l1.442-4.259L17.068 2.116zm-2.23 2.026l3.02 3.02M4.584 14.668l2.75 2.75"/></svg><svg stroke-linecap="round" stroke-linejoin="round" viewBox="0 0 24 24" id="plus" xmlns="http://www.w3.org/2000/svg"><path d="M12 5v14m-7-7h14"/></svg><svg viewBox="0 0 24 21" id="tl" xmlns="http://www.w3.org/2000/svg"><path d="M22.224.002c-.31.014-.603.102-.863.2h-.003c-.263.102-1.515.615-3.416 1.392L11.127 4.39 1.428 8.37l.058-.02s-.332.105-.678.337a1.854 1.854 0 00-.541.51 1.46 1.46 0 00-.256.997c.083.65.515 1.04.826 1.254.313.218.613.32.613.32h.007l4.508 1.48c.202.632 1.374 4.384 1.655 5.248.166.517.329.84.53 1.086.098.126.213.232.35.316a1.049 1.049 0 00.228.095l-.047-.01c.014.003.025.014.036.017.036.01.061.014.108.021.714.21 1.288-.221 1.288-.221l.032-.025 2.662-2.36 4.461 3.333.101.043c.93.396 1.872.175 2.37-.215.5-.393.696-.896.696-.896l.032-.08 3.448-17.205c.097-.426.123-.823.014-1.209a1.63 1.63 0 00-.72-.942 1.764 1.764 0 00-.985-.242zm-.094 1.844c-.004.057.007.05-.018.159v.01l-3.416 17.026c-.014.024-.04.077-.108.13-.072.056-.13.091-.43-.025l-5.456-4.075-3.296 2.926.692-4.307 8.916-8.095c.367-.334.245-.404.245-.404.025-.407-.556-.12-.556-.12L7.462 11.857l-.004-.018-5.388-1.767v-.003c-.004 0-.01-.004-.014-.004a.29.29 0 00.028-.01l.03-.014.028-.01 9.702-3.982 6.813-2.796a781.14 781.14 0 013.379-1.377c.076-.029.04-.029.094-.029z"/></svg><svg viewBox="0 0 25 15" id="vk" xmlns="http://www.w3.org/2000/svg"><path fill-rule="evenodd" clip-rule="evenodd" d="M23.591.027c.821 0 1.006.427.821 1.015-.29 1.345-2.691 4.915-3.435 6.02-.142.21-.223.331-.22.331-.29.48-.396.694 0 1.229.145.197.449.498.797.843.358.354.762.753 1.084 1.132 1.164 1.334 2.065 2.455 2.303 3.229.212.774-.158 1.174-.953 1.174H21.26c-.723 0-1.096-.418-1.889-1.31-.34-.382-.758-.85-1.315-1.412-1.614-1.575-2.33-1.788-2.728-1.788-.555 0-.714.134-.714.934v2.482c0 .668-.211 1.068-1.96 1.068-2.885 0-6.088-1.762-8.34-5.044C.926 5.125 0 1.496 0 .774 0 .374.132 0 .926 0H3.68c.688 0 .954.294 1.218 1.068 1.35 3.924 3.6 7.367 4.528 7.367.344 0 .502-.16.502-1.041V3.336c-.065-1.153-.463-1.655-.758-2.027-.184-.231-.327-.412-.327-.668 0-.32.265-.641.688-.641h4.29c.582 0 .794.32.794 1.015v5.471c0 .587.238.8.424.8.344 0 .635-.212 1.27-.853C18.27 4.218 19.673.8 19.673.8c.186-.4.504-.774 1.192-.774h2.727z"/></svg><svg viewBox="0 0 25 25" id="wt" xmlns="http://www.w3.org/2000/svg"><path d="M0 25l1.766-6.42a12.317 12.317 0 01-1.661-6.193C.108 5.556 5.692 0 12.552 0a12.398 12.398 0 018.806 3.633A12.287 12.287 0 0125 12.398c-.003 6.83-5.587 12.387-12.448 12.387A12.501 12.501 0 016.6 23.277L0 25zm6.905-3.966c1.754 1.037 3.429 1.658 5.643 1.659 5.702 0 10.347-4.619 10.35-10.297.002-5.69-4.62-10.302-10.341-10.304-5.707 0-10.349 4.618-10.35 10.295-.002 2.318.68 4.054 1.827 5.87l-1.046 3.8 3.917-1.023zm11.918-5.691c-.078-.13-.285-.207-.597-.362-.31-.155-1.84-.904-2.126-1.007-.284-.103-.492-.155-.7.155-.207.31-.804 1.008-.985 1.214-.18.206-.363.232-.674.077-.31-.155-1.313-.482-2.501-1.537-.924-.82-1.55-1.834-1.73-2.144-.181-.31-.02-.478.136-.632.14-.138.31-.361.467-.542.158-.18.209-.309.314-.516.103-.206.052-.388-.027-.543-.078-.154-.7-1.678-.958-2.298-.254-.603-.51-.522-.7-.53l-.597-.011c-.207 0-.544.077-.829.387-.285.31-1.088 1.059-1.088 2.582 0 1.524 1.114 2.996 1.27 3.203.155.206 2.192 3.333 5.312 4.673.742.32 1.322.51 1.773.653.745.235 1.423.202 1.96.123.597-.089 1.84-.75 2.099-1.472.26-.724.26-1.344.18-1.473z"/></svg></svg>