<svg width="64" height="64" viewBox="0 0 64 64" fill="none" xmlns="http://www.w3.org/2000/svg">
<path d="M59.1742 38.8394L45.527 52.4865C44.8906 53.1229 43.9007 53.1229 43.2643 52.4865C41.4965 50.7188 39.658 50.5773 36.8296 50.2945C35.2739 50.1531 33.5062 49.941 31.5263 49.5167C25.9401 48.1732 20.0711 46.1226 18.0913 44.9912C16.1114 43.8598 15.475 42.6578 15.3335 41.6678C15.1214 40.4657 15.6164 39.2637 16.6063 38.2737C17.9498 36.9302 20.4954 36.6473 23.1824 36.9302L11.5152 25.2629C9.60597 23.3537 9.67669 20.3132 11.5152 18.4747C13.3536 16.6362 16.4649 16.6362 18.3034 18.4747L23.041 23.2123C23.2531 22.7174 23.536 22.2931 23.9602 21.8688C25.1623 20.6667 26.8594 20.2425 28.415 20.5253C28.6271 19.7475 29.0514 19.0404 29.6878 18.404C31.2434 16.8484 33.6476 16.5655 35.4154 17.6262C35.6275 17.1312 35.9811 16.6362 36.476 16.1413C38.3852 14.2321 41.4258 14.3028 43.2642 16.1412L46.6584 19.5354C49.5575 22.4345 51.396 25.4043 53.093 28.2328C54.8608 31.1319 56.4164 33.8189 59.1034 36.5059C59.7398 37.1423 59.8106 38.203 59.1742 38.8394ZM44.3956 49.0924L55.8507 37.6373C53.5173 35.021 51.9617 32.4754 50.406 29.9298C48.709 27.1014 47.0119 24.4144 44.3956 21.7981L40.7894 18.1919C40.153 17.5555 39.163 17.5555 38.5266 18.1919C37.8902 18.8283 37.8902 19.8182 38.5266 20.4546L39.8701 21.7981C40.5065 22.4345 40.5065 23.4245 39.8701 24.0609C39.2337 24.6972 38.2438 24.6972 37.6074 24.0608L34.0012 20.4546C33.3648 19.8182 32.3748 19.8182 31.7384 20.4546C31.102 21.091 31.102 22.0809 31.7384 22.7173L34.2133 25.1922C34.8497 25.8286 34.8497 26.8186 34.2133 27.455C33.5769 28.0914 32.5869 28.0914 31.9505 27.455L28.3443 23.8487C27.7079 23.2123 26.718 23.2123 26.0816 23.8487C25.4452 24.4851 25.4452 25.4751 26.0816 26.1115L28.5564 28.5863C29.1928 29.2227 29.1928 30.2127 28.5564 30.8491C27.92 31.4855 26.9301 31.4855 26.2937 30.8491L15.8285 20.3839C15.1921 19.7475 14.2022 19.7475 13.5658 20.3839C12.9294 21.0203 12.9294 22.0102 13.5658 22.6466L30.8192 39.9C31.4556 40.5364 31.4556 41.5264 30.8192 42.1628C30.1828 42.7992 29.1928 42.7992 28.5564 42.1628L27.6372 41.2435C24.0309 39.6172 19.5055 39.6172 18.7984 40.3243C18.5155 40.6072 18.4448 40.8193 18.5862 41.1021C18.6569 41.3143 18.9398 41.7385 19.5762 42.0921C21.1318 42.9406 26.5765 44.8498 32.3748 46.264C34.2133 46.6883 35.7689 46.8297 37.3246 46.9711C39.8701 47.2539 42.1329 47.5368 44.3956 49.0924Z" fill="#ffffff"/>
</svg>
