<svg width="39" height="33" viewBox="0 0 39 33" fill="none" xmlns="http://www.w3.org/2000/svg">
<path d="M23.3707 16.7932C25.8763 16.7932 27.9075 14.762 27.9075 12.2565C27.9075 9.75089 25.8763 7.71973 23.3707 7.71973C20.8652 7.71973 18.834 9.75089 18.834 12.2565C18.834 14.762 20.8652 16.7932 23.3707 16.7932Z" fill="#000000"/>
<path d="M14.8427 14.368C16.009 14.368 16.9545 13.4226 16.9545 12.2563C16.9545 11.09 16.009 10.1445 14.8427 10.1445C13.6764 10.1445 12.731 11.09 12.731 12.2563C12.731 13.4226 13.6764 14.368 14.8427 14.368Z" fill="#000000"/>
<path d="M23.3703 6.64778C24.983 6.64778 26.2904 5.34042 26.2904 3.7277C26.2904 2.11498 24.983 0.807617 23.3703 0.807617C21.7576 0.807617 20.4502 2.11498 20.4502 3.7277C20.4502 5.34042 21.7576 6.64778 23.3703 6.64778Z" fill="#000000"/>
<path d="M14.8427 7.45682C16.9018 7.45682 18.5711 5.78755 18.5711 3.72841C18.5711 1.66927 16.9018 0 14.8427 0C12.7835 0 11.1143 1.66927 11.1143 3.72841C11.1143 5.78755 12.7835 7.45682 14.8427 7.45682Z" fill="#000000"/>
<path d="M20.5218 23.0779C21.3087 23.0779 21.9465 22.44 21.9465 21.6532C21.9465 20.8664 21.3087 20.2285 20.5218 20.2285C19.735 20.2285 19.0972 20.8664 19.0972 21.6532C19.0972 22.44 19.735 23.0779 20.5218 23.0779Z" fill="#000000"/>
<path d="M8.07701 32.1064H10.4321L6.07054 20.2305H4.36234L0 32.1068H2.35526L3.18824 29.8399H7.24402L8.07701 32.1068L3.8442 28.0527L5.21634 24.3182L6.58766 28.0527H3.8442L8.07701 32.1064ZM16.2702 23.9985L14.1029 29.8981L11.9366 23.9985H9.72377L12.7029 32.1064H15.5033L18.482 23.9985H16.2698H16.2702ZM19.4081 23.9985H21.6209V32.1064H19.4081V23.9985Z" fill="#000000"/>
<path d="M29.4339 25.7852V23.9984H26.7832V21.7617H24.5718V23.9984H22.8218V25.7852H24.5718V29.2735C24.5718 31.0728 25.4715 32.2738 27.7687 32.2738C28.6559 32.2738 29.4339 31.9481 29.4339 31.9481L29.1651 30.1974C29.1651 30.1974 28.7296 30.3276 28.1941 30.3276C27.5378 30.3276 26.7832 30.0446 26.7832 29.1373V25.785H29.4339V25.7852ZM34.5082 30.253C33.2745 30.253 32.2748 29.2749 32.2748 28.0685C32.2748 26.8631 33.2745 25.8848 34.5078 25.8848C35.7419 25.8848 36.7412 26.8633 36.7412 28.0687C36.7412 29.2751 35.7419 30.2532 34.5082 30.2532V30.253ZM34.5082 23.7914C32.1099 23.7914 30.1648 25.694 30.1648 28.0392C30.1648 30.3854 32.1099 32.2869 34.508 32.2869C36.9051 32.2869 38.8501 30.3854 38.8501 28.0392C38.8501 25.694 36.9051 23.7914 34.5078 23.7914" fill="#000000"/>
</svg>
