<svg width="25" height="25" viewBox="0 0 25 25" fill="none" xmlns="http://www.w3.org/2000/svg">
<path d="M19.1729 4.32842C18.775 4.32842 18.3933 4.48666 18.1119 4.76757C18.01 4.8692 17.9244 4.98389 17.8565 5.10801C17.7865 5.23649 17.7355 5.37441 17.705 5.51741C17.6834 5.61903 17.6723 5.72356 17.6723 5.82881C17.6723 6.22659 17.8306 6.6084 18.1119 6.89004C18.3933 7.17096 18.775 7.3292 19.1729 7.3292C19.3813 7.3292 19.585 7.28565 19.7723 7.20362C19.9429 7.12958 20.0999 7.02361 20.234 6.89004C20.3485 6.77535 20.4427 6.64397 20.514 6.5017C20.6178 6.29482 20.6733 6.06472 20.6733 5.82881C20.6733 5.43103 20.5153 5.04921 20.234 4.76757C19.9525 4.48666 19.5709 4.32842 19.1729 4.32842Z" fill="#000000"/>
<path fill-rule="evenodd" clip-rule="evenodd" d="M6.10636 11.8696C6.12342 11.6729 6.14937 11.4769 6.18422 11.2831C6.26189 10.8519 6.38384 10.428 6.54879 10.0193C6.86655 9.231 7.33784 8.51384 7.93488 7.90918C8.53211 7.30525 9.2433 6.82471 10.0274 6.49734C10.8114 6.16997 11.6527 6.00084 12.5025 6.00084C13.3522 6.00084 14.1935 6.16997 14.9775 6.49734C15.7616 6.82471 16.4728 7.30525 17.07 7.90918C17.6671 8.51384 18.1383 9.231 18.4561 10.0193C18.774 10.8069 18.9325 11.6504 18.9219 12.5004C18.9011 14.1888 18.2157 15.8017 17.0139 16.9885C15.8124 18.1753 14.1915 18.8409 12.5025 18.8409C10.8136 18.8409 9.19248 18.1753 7.99096 16.9885C6.78925 15.8017 6.10382 14.1888 6.08295 12.5004C6.08041 12.2891 6.08822 12.0786 6.10636 11.8696ZM15.4477 9.55329C14.6662 8.77225 13.6063 8.33309 12.5011 8.33309C11.3959 8.33309 10.3361 8.77225 9.55452 9.55329C8.7731 10.3351 8.33412 11.3948 8.33412 12.5004C8.33412 13.6052 8.7731 14.6649 9.55452 15.4467C10.3361 16.2278 11.3959 16.6669 12.5011 16.6669C13.6063 16.6669 14.6662 16.2278 15.4477 15.4467C16.2291 14.6649 16.6681 13.6052 16.6681 12.5004C16.6681 11.3948 16.2291 10.3351 15.4477 9.55329Z" fill="#000000"/>
<path fill-rule="evenodd" clip-rule="evenodd" d="M7.34673 0.0754914C7.87608 0.0515374 8.26244 0.0348422 8.74788 0.0232281C9.48593 0.00508115 10.4534 0 12.4971 0C14.2492 0 15.2103 0.0036294 15.9133 0.0159693C16.5731 0.0268575 17.0056 0.0457304 17.6515 0.0754914C18.9815 0.136465 19.8906 0.347696 20.6875 0.656195C21.5219 0.969774 22.2774 1.46119 22.9015 2.09779C23.5375 2.72205 24.0297 3.47841 24.3438 4.31245C24.6514 5.10656 24.8614 6.01536 24.9249 7.3459C24.9459 7.81699 24.9615 8.17485 24.9728 8.59078C24.9935 9.3515 25 10.3053 25 12.4996C25 13.8389 24.9976 14.7165 24.9911 15.3698C24.9857 15.9033 24.9775 16.2873 24.9655 16.6509C24.955 16.9711 24.9417 17.2759 24.9249 17.6534C24.8624 18.9832 24.6514 19.8927 24.3438 20.6876C24.0295 21.5209 23.5373 22.2765 22.9015 22.9008C22.2777 23.5374 21.5224 24.0295 20.6886 24.3438C19.8926 24.653 18.9835 24.8628 17.6535 24.9245C16.3195 24.9848 15.8955 25 12.5 25C9.10556 25 8.67964 24.9848 7.34564 24.9245C6.01563 24.8628 5.10645 24.653 4.3116 24.3438C3.47737 24.0295 2.72172 23.5374 2.09764 22.9008C1.46176 22.2765 0.969788 21.5209 0.656204 20.6861C0.347701 19.8913 0.136649 18.9832 0.0751296 17.6534C0.0156066 16.3192 0 15.8953 0 12.4996C0 10.8846 0.00362945 9.94091 0.0137919 9.25205C0.0248617 8.49351 0.0439163 8.04419 0.0751296 7.3459C0.134834 6.01536 0.345705 5.10656 0.656204 4.31172C0.970514 3.47769 1.46285 2.72205 2.09873 2.09779C2.72317 1.46192 3.47901 0.969774 4.31342 0.656195C4.70376 0.504486 5.12188 0.376731 5.60423 0.278012C6.10292 0.176389 6.67038 0.106704 7.34673 0.0754914ZM11.38 2.25313H12.5009C15.8389 2.25313 16.2343 2.26474 17.5527 2.32426C18.7715 2.38016 19.4326 2.58413 19.873 2.75544C20.457 2.98191 20.872 3.25339 21.3096 3.68964C21.5471 3.92773 21.7353 4.15929 21.8943 4.41407C22.0282 4.62893 22.1413 4.86121 22.2452 5.12834C22.351 5.40054 22.4697 5.75767 22.5576 6.27958C22.6115 6.60042 22.6539 6.98368 22.6748 7.44752C22.6971 7.93458 22.7131 8.29535 22.7242 8.72507C22.743 9.45893 22.7481 10.3939 22.7481 12.4975C22.7481 15.8329 22.7354 16.2292 22.6759 17.5467C22.6202 18.7654 22.416 19.4267 22.2452 19.8673C22.0447 20.4095 21.725 20.9002 21.3096 21.3031C20.9071 21.7183 20.4166 22.0377 19.8741 22.238C19.4337 22.4101 18.7706 22.6133 17.5527 22.6678C16.9575 22.6953 16.5505 22.7128 15.9757 22.7236C15.2774 22.7374 14.3318 22.7411 12.5009 22.7411C9.16309 22.7411 8.76766 22.7287 7.45017 22.6692C6.2314 22.6126 5.5703 22.4093 5.12895 22.238C4.58581 22.0377 4.09456 21.7183 3.69133 21.3031C3.27612 20.8995 2.95655 20.4088 2.75584 19.8666C2.58489 19.4267 2.38092 18.7647 2.32611 17.5459C2.26568 16.2278 2.25389 15.8321 2.25389 12.4946C2.25389 9.15624 2.26568 8.76281 2.32521 7.44534C2.35569 6.78769 2.42901 6.29265 2.51666 5.90648C2.59161 5.57693 2.67708 5.32723 2.75584 5.12398C2.98232 4.54037 3.2538 4.12444 3.69133 3.68674C3.82979 3.54447 3.9786 3.41308 4.1363 3.29404C4.43809 3.06611 4.77236 2.88319 5.12895 2.75108C5.38374 2.65164 5.71275 2.54203 6.18077 2.45637C6.52176 2.39395 6.93642 2.34386 7.45017 2.32064C7.84886 2.30249 8.16317 2.2887 8.50035 2.27853C8.83861 2.26837 9.19992 2.26111 9.69262 2.25748C10.1278 2.25385 10.6653 2.2524 11.38 2.25313Z" fill="#000000"/>
</svg>
