<svg width="32" height="32" viewBox="0 0 32 32" fill="none" xmlns="http://www.w3.org/2000/svg">
<path fill-rule="evenodd" clip-rule="evenodd" d="M15.75 18.5517C17.2973 18.5517 18.5517 17.2973 18.5517 15.75C18.5517 14.2026 17.2973 12.9482 15.75 12.9482C14.2026 12.9482 12.9482 14.2026 12.9482 15.75C12.9482 17.2973 14.2026 18.5517 15.75 18.5517ZM15.75 19.5517C17.8496 19.5517 19.5517 17.8496 19.5517 15.75C19.5517 13.6503 17.8496 11.9482 15.75 11.9482C13.6503 11.9482 11.9482 13.6503 11.9482 15.75C11.9482 17.8496 13.6503 19.5517 15.75 19.5517Z" fill="#000000"/>
<path fill-rule="evenodd" clip-rule="evenodd" d="M17.1549 9.85346L15.7497 8.11035L14.3446 9.85346C13.9176 10.3832 13.2505 10.6595 12.574 10.5868L10.3479 10.3479L10.5868 12.574C10.6595 13.2505 10.3832 13.9176 9.85346 14.3446L8.11035 15.7497L9.85346 17.1549C10.3832 17.5819 10.6595 18.2489 10.5868 18.9254L10.3479 21.1516L12.574 20.9126C13.2505 20.84 13.9176 21.1163 14.3446 21.646L15.7497 23.3891L17.1549 21.646C17.5819 21.1163 18.2489 20.84 18.9254 20.9126L21.1516 21.1516L20.9126 18.9254C20.84 18.2489 21.1163 17.5819 21.646 17.1549L23.3891 15.7497L21.646 14.3446C21.1163 13.9176 20.84 13.2505 20.9126 12.574L21.1516 10.3479L18.9254 10.5868C18.2489 10.6595 17.5819 10.3832 17.1549 9.85346ZM16.5283 7.48275C16.128 6.98622 15.3715 6.98622 14.9712 7.48276L13.566 9.22586C13.3525 9.49072 13.019 9.62886 12.6808 9.59255L10.4546 9.35359C9.82047 9.28551 9.28551 9.82047 9.35359 10.4546L9.59255 12.6808C9.62886 13.019 9.49072 13.3525 9.22586 13.566L7.48275 14.9712C6.98622 15.3715 6.98622 16.128 7.48276 16.5283L9.22586 17.9334C9.49072 18.1469 9.62886 18.4804 9.59255 18.8187L9.35359 21.0449C9.28551 21.679 9.82047 22.2139 10.4546 22.1459L12.6808 21.9069C13.019 21.8706 13.3525 22.0087 13.566 22.2736L14.9712 24.0167C15.3715 24.5132 16.128 24.5132 16.5283 24.0167L17.9334 22.2736C18.1469 22.0087 18.4804 21.8706 18.8187 21.9069L21.0449 22.1459C21.679 22.2139 22.2139 21.679 22.1459 21.0449L21.9069 18.8187C21.8706 18.4804 22.0087 18.1469 22.2736 17.9334L24.0167 16.5283C24.5132 16.128 24.5132 15.3715 24.0167 14.9712L22.2736 13.566C22.0087 13.3525 21.8706 13.019 21.9069 12.6808L22.1459 10.4546C22.2139 9.82047 21.679 9.28551 21.0449 9.35359L18.8187 9.59255C18.4804 9.62886 18.1469 9.49072 17.9334 9.22586L16.5283 7.48275Z" fill="#000000"/>
<path fill-rule="evenodd" clip-rule="evenodd" d="M18.6646 4.87247L15.75 0L12.8354 4.87247L7.875 2.1101L7.78709 7.78709L2.1101 7.875L4.87247 12.8354L0 15.75L4.87247 18.6646L2.1101 23.625L7.78709 23.7129L7.875 29.3899L12.8354 26.6275L15.75 31.5L18.6646 26.6275L23.625 29.3899L23.7129 23.7129L29.3899 23.625L26.6275 18.6646L31.5 15.75L26.6275 12.8354L29.3899 7.875L23.7129 7.78709L23.625 2.1101L18.6646 4.87247ZM22.651 3.79711L18.3041 6.21782L15.75 1.94799L13.1959 6.21782L8.849 3.79711L8.77196 8.77196L3.79711 8.849L6.21782 13.1959L1.94799 15.75L6.21782 18.3041L3.79711 22.651L8.77196 22.728L8.849 27.7029L13.1959 25.2822L15.75 29.552L18.3041 25.2822L22.651 27.7029L22.728 22.728L27.7029 22.651L25.2822 18.3041L29.552 15.75L25.2822 13.1959L27.7029 8.849L22.728 8.77196L22.651 3.79711Z" fill="#000000"/>
</svg>
