<svg width="26" height="26" viewBox="0 0 26 26" fill="none" xmlns="http://www.w3.org/2000/svg">
<path d="M20.5833 5.41675H5.41667C4.84203 5.41675 4.29093 5.64502 3.8846 6.05135C3.47827 6.45768 3.25 7.00878 3.25 7.58341V18.4167C3.25 18.9914 3.47827 19.5425 3.8846 19.9488C4.29093 20.3551 4.84203 20.5834 5.41667 20.5834H20.5833C21.158 20.5834 21.7091 20.3551 22.1154 19.9488C22.5217 19.5425 22.75 18.9914 22.75 18.4167V7.58341C22.75 7.00878 22.5217 6.45768 22.1154 6.05135C21.7091 5.64502 21.158 5.41675 20.5833 5.41675Z" stroke="#373737" stroke-linecap="round" stroke-linejoin="round"/>
<path d="M3.25 7.58325L13 14.0833L22.75 7.58325" stroke="#373737" stroke-linecap="round" stroke-linejoin="round"/>
</svg>
