<svg width="24" height="21" viewBox="0 0 24 21" fill="none" xmlns="http://www.w3.org/2000/svg">
<path d="M22.2235 0.0019561C21.9133 0.0160095 21.6212 0.103843 21.3615 0.202217H21.3579C21.0946 0.304104 19.8432 0.817055 17.9425 1.59351C16.0418 2.37347 13.5749 3.38532 11.1261 4.39014C6.23556 6.39627 1.42799 8.37077 1.42799 8.37077L1.4857 8.34969C1.4857 8.34969 1.15389 8.45509 0.807662 8.68698C0.63094 8.7994 0.436185 8.95399 0.266677 9.19641C0.0971674 9.43884 -0.0398829 9.81125 0.0106096 10.1942C0.093561 10.8442 0.52635 11.2342 0.836515 11.4485C1.15029 11.6663 1.44963 11.7682 1.44963 11.7682H1.45685L5.96507 13.2473C6.16703 13.8797 7.33917 17.632 7.62048 18.4963C7.78638 19.0127 7.94868 19.336 8.15065 19.5819C8.24803 19.7084 8.36344 19.8138 8.50049 19.8981C8.55458 19.9297 8.61229 19.9543 8.67 19.9754C8.68803 19.9859 8.70606 19.9895 8.7277 19.993L8.68081 19.9824C8.69524 19.9859 8.70606 19.9965 8.71688 20C8.75295 20.0105 8.77819 20.014 8.82508 20.0211C9.53918 20.2319 10.1126 19.7997 10.1126 19.7997L10.1451 19.7751L12.8067 17.4142L17.2681 20.7483L17.3691 20.7905C18.2996 21.1875 19.2409 20.9662 19.7386 20.5762C20.2399 20.1827 20.4346 19.6803 20.4346 19.6803L20.4671 19.5995L23.915 2.39455C24.0124 1.96944 24.0376 1.57243 23.9294 1.18596C23.8212 0.799489 23.5435 0.437613 23.2081 0.244378C22.8691 0.0476295 22.5337 -0.0120973 22.2235 0.0019561ZM22.1297 1.84647C22.1261 1.90268 22.1369 1.89566 22.1117 2.00457V2.01511L18.6963 19.0408C18.6818 19.0654 18.6566 19.1181 18.5881 19.1708C18.5159 19.2271 18.4582 19.2622 18.1589 19.1462L12.7021 15.0707L9.40574 17.9974L10.0982 13.69C10.0982 13.69 18.6458 5.92899 19.0137 5.59522C19.3815 5.26145 19.2589 5.19119 19.2589 5.19119C19.2841 4.78364 18.7035 5.07173 18.7035 5.07173L7.46179 11.856L7.45819 11.8385L2.06996 10.0712V10.0677C2.06636 10.0677 2.05914 10.0642 2.05554 10.0642C2.05914 10.0642 2.08439 10.0537 2.08439 10.0537L2.11324 10.0396L2.1421 10.0291C2.1421 10.0291 6.95327 8.05457 11.8438 6.04844C14.2926 5.04362 16.7595 4.03178 18.6566 3.25181C20.5537 2.47536 21.9566 1.9062 22.036 1.87458C22.1117 1.84647 22.0756 1.84647 22.1297 1.84647Z" fill="#000000"/>
</svg>
