<svg width="25" height="15" viewBox="0 0 25 15" fill="none" xmlns="http://www.w3.org/2000/svg">
<path fill-rule="evenodd" clip-rule="evenodd" d="M23.5913 0.0267902C24.4121 0.0267902 24.5973 0.453853 24.4121 1.04166C24.1228 2.38667 21.7209 5.95682 20.9768 7.0623C20.8353 7.27268 20.754 7.39324 20.7579 7.39324C20.4664 7.87388 20.3608 8.08741 20.7579 8.62163C20.9017 8.81862 21.2058 9.1204 21.5536 9.46473C21.9116 9.81851 22.3157 10.218 22.6377 10.597C23.8024 11.931 24.7028 13.0522 24.9412 13.826C25.153 14.6005 24.7826 15 23.9876 15H21.2613C20.5383 15 20.1654 14.5824 19.3721 13.6904C19.0313 13.3083 18.6139 12.8395 18.0574 12.2785C16.4425 10.7034 15.7273 10.4898 15.3294 10.4898C14.7745 10.4898 14.615 10.6238 14.615 11.4243V13.9063C14.615 14.5737 14.404 14.974 12.6555 14.974C9.76967 14.974 6.56652 13.2122 4.31541 9.92961C0.926239 5.12476 0 1.49551 0 0.773757C0 0.374271 0.132096 0 0.926238 0H3.67994C4.36778 0 4.63354 0.293903 4.89773 1.06766C6.2484 4.9916 8.49873 8.43489 9.42575 8.43489C9.76967 8.43489 9.92834 8.27494 9.92834 7.39402V3.33614C9.86347 2.18338 9.46483 1.68146 9.17015 1.30877C8.98647 1.0779 8.84343 0.896676 8.84343 0.640596C8.84343 0.320693 9.10762 0 9.53127 0H13.8209C14.4032 0 14.615 0.320691 14.615 1.01487V6.48632C14.615 7.07333 14.8534 7.28686 15.0387 7.28686C15.3826 7.28686 15.6741 7.07412 16.3096 6.43274C18.2692 4.21784 19.6722 0.801334 19.6722 0.801334C19.8575 0.401061 20.1756 0.0267902 20.8642 0.0267902H23.5913Z" fill="#000000"/>
</svg>
