<svg width="25" height="25" viewBox="0 0 25 25" fill="none" xmlns="http://www.w3.org/2000/svg">
<path d="M0 25L1.76568 18.5802C0.676128 16.701 0.103617 14.5708 0.104664 12.3865C0.107804 5.55729 5.69162 0 12.5523 0C15.8817 0.00104167 19.0069 1.29167 21.3577 3.63333C23.7074 5.975 25.001 9.0875 25 12.3979C24.9969 19.2281 19.413 24.7854 12.5523 24.7854C10.4695 24.7844 8.41706 24.2646 6.59905 23.2771L0 25ZM6.90467 21.0344C8.65884 22.0708 10.3335 22.6917 12.5481 22.6927C18.2502 22.6927 22.8952 18.074 22.8983 12.3958C22.9004 6.70625 18.2774 2.09375 12.5565 2.09167C6.85025 2.09167 2.20841 6.71042 2.20631 12.3875C2.20527 14.7052 2.88767 16.4406 4.03374 18.2562L2.98815 22.0562L6.90467 21.0344ZM18.8227 15.3427C18.7453 15.2135 18.5381 15.1365 18.2262 14.9812C17.9153 14.826 16.3862 14.0771 16.1004 13.974C15.8157 13.8708 15.6085 13.8187 15.4002 14.1292C15.193 14.4385 14.5964 15.1365 14.4153 15.3427C14.2343 15.549 14.0522 15.575 13.7413 15.4198C13.4305 15.2646 12.4278 14.9385 11.2398 13.8833C10.3157 13.0625 9.69082 12.049 9.50975 11.7385C9.32868 11.4292 9.49091 11.2615 9.64582 11.1073C9.78607 10.9688 9.95667 10.7458 10.1126 10.5646C10.2707 10.3854 10.3219 10.2563 10.4266 10.049C10.5302 9.84271 10.4789 9.66146 10.4004 9.50625C10.3219 9.35208 9.70024 7.82812 9.44172 7.20833C9.18844 6.60521 8.93201 6.68646 8.74152 6.67708L8.14494 6.66667C7.9377 6.66667 7.60069 6.74375 7.316 7.05417C7.03131 7.36458 6.2275 8.1125 6.2275 9.63646C6.2275 11.1604 7.34217 12.6323 7.49707 12.8385C7.65302 13.0448 9.68978 16.1719 12.8098 17.5125C13.5519 17.8312 14.1317 18.0219 14.5828 18.1646C15.328 18.4 16.0062 18.3667 16.5421 18.2875C17.1397 18.199 18.3821 17.5385 18.6417 16.8156C18.9012 16.0917 18.9012 15.4719 18.8227 15.3427Z" fill="#000000"/>
</svg>
